<svg width="178" height="154" viewBox="0 0 178 154" fill="none" xmlns="http://www.w3.org/2000/svg">
<path d="M64.3898 0H44.9547L0.90918 76.6019L10.5253 93.3261L64.3898 0Z" fill="white" fill-opacity="0.1"/>
<path d="M142.966 17.0894L133.14 0H70.0022L60.5889 17.0894H142.966Z" fill="white" fill-opacity="0.1"/>
<path d="M61.3968 73.8695L69.929 122.371H104.589L128.703 80.7235L113.814 55.1684L143.421 55.3054L162.139 22.9736H126.395L96.4661 72.1665L92.9134 22.9736H57.1692L12.6621 100.355L25.2855 122.371H34.6604L61.3968 73.8695Z" fill="white" fill-opacity="0.1"/>
<path d="M0 122.372H19.4561L9.72806 105.451L0 122.372Z" fill="white" fill-opacity="0.1"/>
<path d="M54.7774 136.114L43.6331 116.731L37.9578 127.3H30.0586L44.9549 153.203H107.477L117.433 136.114H54.7774Z" fill="white" fill-opacity="0.1"/>
<path d="M141.302 60.2056H122.531L131.917 76.5295L141.302 60.2056Z" fill="white" fill-opacity="0.1"/>
<path d="M167.702 60.2056H146.942L137.529 76.6032H157.432L113.45 153.205H133.039L177.084 76.6032L167.702 60.2056Z" fill="white" fill-opacity="0.1"/>
</svg>
