<svg width="153" height="153" viewBox="0 0 153 153" fill="none" xmlns="http://www.w3.org/2000/svg">
<path d="M43.4655 110C39.1705 110 35.0934 109.131 31.2341 107.394C27.4371 105.657 24.0758 103.269 21.1502 100.229C18.2869 97.1273 16.046 93.5292 14.4276 89.4347C12.8092 85.3403 12 80.9046 12 76.1278C12 71.5991 12.8092 67.3495 14.4276 63.3792C16.046 59.3468 18.318 55.8106 21.2436 52.7708C24.1691 49.731 27.5927 47.3426 31.5142 45.6056C35.4357 43.8685 39.6996 43 44.3058 43C50.5304 43 55.8525 44.3338 60.272 47.0014C64.7537 49.6069 68.115 53.081 70.3559 57.4236L60.7388 64.4958C59.0582 61.2079 56.6928 58.6954 53.6427 56.9583C50.6549 55.2213 47.387 54.3528 43.839 54.3528C41.0379 54.3528 38.4858 54.9421 36.1827 56.1208C33.8796 57.2995 31.8877 58.9125 30.207 60.9597C28.5264 63.0069 27.2192 65.3644 26.2855 68.0319C25.4141 70.6995 24.9783 73.5222 24.9783 76.5C24.9783 79.6639 25.4452 82.5796 26.3789 85.2472C27.3748 87.9148 28.7442 90.2412 30.4871 92.2264C32.2923 94.2116 34.3775 95.7935 36.7429 96.9722C39.1082 98.0889 41.7226 98.6472 44.5859 98.6472C47.9472 98.6472 51.1529 97.7787 54.203 96.0417C57.3153 94.3046 60.2097 91.7611 62.8863 88.4111V101.067C57.3464 107.022 50.8728 110 43.4655 110ZM61.9526 84.9681H48.6008V75.5694H72.5967V109.535H61.9526V84.9681Z" fill="#DC6926"/>
<path d="M96.4628 67.1014V109.535H83.5778V43.4653H93.8485L128.115 87.0153V43.5583H141V109.535H130.263L96.4628 67.1014Z" fill="#DC6926"/>
</svg>
