<svg width="183" height="212" viewBox="0 0 183 212" fill="none" xmlns="http://www.w3.org/2000/svg">
<path fill-rule="evenodd" clip-rule="evenodd" d="M91.4599 0.170044L182.77 52.89V158.32L91.4599 211.04L0.149902 158.32V52.89L91.4599 0.170044Z" fill="#0068FF"/>
<path fill-rule="evenodd" clip-rule="evenodd" d="M37.6899 74.56L56.9599 68.8L76.8299 57.33L91.4599 43.52V0.170044L45.7999 26.53L0.149902 52.89L37.6899 74.56Z" fill="url(#paint0_radial_1037_5)"/>
<path fill-rule="evenodd" clip-rule="evenodd" d="M91.46 43.52L106.08 57.33L125.95 68.8L145.22 74.56L182.77 52.89L137.11 26.53L91.46 0.170044V43.52Z" fill="url(#paint1_radial_1037_5)"/>
<path fill-rule="evenodd" clip-rule="evenodd" d="M145.22 74.56L140.58 94.13V117.08L145.22 136.65L182.77 158.32V105.61V52.89L145.22 74.56Z" fill="url(#paint2_radial_1037_5)"/>
<path fill-rule="evenodd" clip-rule="evenodd" d="M145.22 136.65L125.95 142.41L106.08 153.88L91.46 167.69V211.04L137.11 184.68L182.77 158.32L145.22 136.65Z" fill="url(#paint3_radial_1037_5)"/>
<path fill-rule="evenodd" clip-rule="evenodd" d="M91.4599 167.69L76.8299 153.88L56.9599 142.41L37.6899 136.65L0.149902 158.32L45.7999 184.68L91.4599 211.04V167.69Z" fill="url(#paint4_radial_1037_5)"/>
<path fill-rule="evenodd" clip-rule="evenodd" d="M37.6899 136.65L42.3299 117.08V94.13L37.6899 74.56L0.149902 52.89V105.61V158.32L37.6899 136.65Z" fill="url(#paint5_radial_1037_5)"/>
<path style="mix-blend-mode:multiply" fill-rule="evenodd" clip-rule="evenodd" d="M148.74 101.62C148.74 92.22 181.91 59.86 182.77 85.25V52.89L154.16 69.41L148.74 92.23V101.63V101.62Z" fill="url(#paint6_radial_1037_5)"/>
<path style="mix-blend-mode:screen" fill-rule="evenodd" clip-rule="evenodd" d="M41.4497 29.0401C49.2497 28.8901 55.7397 52.4301 54.5297 60.7801L74.3997 49.3101C69.4597 44.3601 66.3697 14.6501 80.5697 6.45007L41.4497 29.0401Z" fill="url(#paint7_radial_1037_5)"/>
<path style="mix-blend-mode:screen" fill-rule="evenodd" clip-rule="evenodd" d="M169.58 165.94C157.47 165.07 149.89 163.85 138.92 146.36L131.68 148.52L116.82 157.1C124.55 162.43 139.28 177.88 134.83 186L169.58 165.94Z" fill="url(#paint8_radial_1037_5)"/>
<path fill-rule="evenodd" clip-rule="evenodd" d="M108.51 49.3101L131.68 62.6901L148.74 92.2301V118.99L131.68 148.52L108.51 161.9H74.3997L51.2297 148.52L34.1797 118.99V92.2301L51.2297 62.6901L74.3997 49.3101H108.51Z" fill="url(#paint9_radial_1037_5)"/>
<path fill-rule="evenodd" clip-rule="evenodd" d="M74.3999 49.3101L91.4599 33.2101L108.51 49.3101H74.3999Z" fill="url(#paint10_radial_1037_5)"/>
<path fill-rule="evenodd" clip-rule="evenodd" d="M131.68 62.6901L154.15 69.41L148.74 92.2301L131.68 62.6901Z" fill="url(#paint11_radial_1037_5)"/>
<path fill-rule="evenodd" clip-rule="evenodd" d="M148.74 118.99L154.15 141.8L131.68 148.52L148.74 118.99Z" fill="url(#paint12_radial_1037_5)"/>
<path fill-rule="evenodd" clip-rule="evenodd" d="M74.3999 161.9L91.4599 178L108.51 161.9H74.3999Z" fill="url(#paint13_radial_1037_5)"/>
<path fill-rule="evenodd" clip-rule="evenodd" d="M34.1798 118.99L28.7598 141.8L51.2298 148.52L34.1798 118.99Z" fill="url(#paint14_radial_1037_5)"/>
<path fill-rule="evenodd" clip-rule="evenodd" d="M51.2298 62.6901L28.7598 69.41L34.1798 92.2301L51.2298 62.6901Z" fill="url(#paint15_radial_1037_5)"/>
<path style="mix-blend-mode:screen" fill-rule="evenodd" clip-rule="evenodd" d="M42.6997 133.75L91.4597 105.61L42.6997 77.4601L34.1797 92.2301V118.99L42.6997 133.75Z" fill="url(#paint16_radial_1037_5)"/>
<path style="mix-blend-mode:screen" fill-rule="evenodd" clip-rule="evenodd" d="M42.6997 77.4601L91.4597 105.61V49.3101H74.3997L51.2297 62.6901L42.6997 77.4601Z" fill="url(#paint17_radial_1037_5)"/>
<path style="mix-blend-mode:screen" opacity="0.5" fill-rule="evenodd" clip-rule="evenodd" d="M91.46 49.3101V105.61L140.21 77.4601L131.68 62.6901L108.51 49.3101H91.46Z" fill="url(#paint18_radial_1037_5)"/>
<path style="mix-blend-mode:screen" opacity="0.75" fill-rule="evenodd" clip-rule="evenodd" d="M140.21 77.4601L91.46 105.61L140.21 133.75L148.74 118.99V92.2301L140.21 77.4601Z" fill="url(#paint19_radial_1037_5)"/>
<path style="mix-blend-mode:screen" opacity="0.5" fill-rule="evenodd" clip-rule="evenodd" d="M140.21 133.75L91.46 105.61V161.9H108.51L131.68 148.52L140.21 133.75Z" fill="url(#paint20_radial_1037_5)"/>
<path style="mix-blend-mode:screen" opacity="0.5" fill-rule="evenodd" clip-rule="evenodd" d="M91.4597 161.9V105.61L42.6997 133.75L51.2297 148.52L74.3997 161.9H91.4597Z" fill="url(#paint21_radial_1037_5)"/>
<path style="mix-blend-mode:screen" fill-rule="evenodd" clip-rule="evenodd" d="M62.8198 155.21L74.3998 162.98C77.5498 166.38 86.7398 175.19 88.3198 178.9C90.3498 183.66 91.0398 198.69 91.4598 206.17C91.9098 198.25 92.4798 184.11 94.4398 178.8C94.8098 177.79 95.3498 176.84 96.0498 175.91L102.11 167.94L95.2798 172.11C94.1398 172.81 92.8598 173.08 91.6198 172.95C88.3798 172.6 81.4998 166.91 80.0098 163.49L88.0398 161.9L76.2298 160.99L62.8298 155.21H62.8198Z" fill="url(#paint22_radial_1037_5)"/>
<path style="mix-blend-mode:screen" fill-rule="evenodd" clip-rule="evenodd" d="M62.8198 56L74.3998 48.23C77.5498 44.83 86.7398 36.02 88.3198 32.31C90.3498 27.55 91.0398 10.87 91.4598 3.39001C91.9098 11.31 92.4798 27.1 94.4398 32.41C94.8098 33.42 95.3498 34.37 96.0498 35.3L102.11 43.27L95.2798 39.1C94.1398 38.4 92.8498 38.04 91.6198 38.26C87.4898 39.02 81.3098 44.11 80.0098 47.72L88.0398 49.32L76.2298 50.23L62.8298 56.01L62.8198 56Z" fill="url(#paint23_radial_1037_5)"/>
<path style="mix-blend-mode:screen" fill-rule="evenodd" clip-rule="evenodd" d="M62.8198 56.0001L50.2998 62.1401C45.7798 63.1701 33.5698 66.7201 29.5598 66.2301C24.4198 65.6101 11.0398 58.68 4.33984 55.3C10.9698 59.65 22.9598 67.2301 26.5798 71.5801C28.6398 74.0601 30.8198 80.4901 32.1498 83.6501C32.0698 80.5301 31.2498 74.5401 33.0598 72.0701C34.9798 69.4401 42.1498 66.4301 47.0598 66.7401L44.4298 74.4901L51.1298 64.7201L62.8298 56.0001H62.8198Z" fill="url(#paint24_radial_1037_5)"/>
<path style="mix-blend-mode:screen" fill-rule="evenodd" clip-rule="evenodd" d="M148.74 105.61L149.68 119.52C151.04 123.95 154.08 136.3 156.51 139.53C159.62 143.66 170.51 150.75 176.78 154.86C169.7 151.29 158.94 145.74 153.37 144.78C152.31 144.6 151.22 144.58 150.06 144.73L140.13 145.99L147.16 142.16C148.33 141.52 149.21 140.55 149.71 139.41C151.03 136.43 149.64 128.02 147.33 124.62L141.94 130.77L147.06 120.09L148.76 105.59L148.74 105.61Z" fill="url(#paint25_radial_1037_5)"/>
<path style="mix-blend-mode:multiply" fill-rule="evenodd" clip-rule="evenodd" d="M59.3699 153.22C51.2299 148.52 6.6199 161.07 28.1799 174.51L0.149902 158.33L28.7599 141.81L51.2299 148.53L59.3699 153.23V153.22Z" fill="url(#paint26_radial_1037_5)"/>
<g style="mix-blend-mode:color">
<path fill-rule="evenodd" clip-rule="evenodd" d="M91.46 0L137.18 26.41L182.91 52.8V105.61V158.41L137.18 184.81L91.46 211.21L45.73 184.81L0 158.41V105.61V52.8L45.73 26.41L91.46 0Z" fill="url(#paint27_radial_1037_5)"/>
</g>
<path d="M84.7302 134.87L89.7302 139.87H46.1602L51.1602 134.87H84.7302Z" fill="#C68BFF"/>
<path d="M84.73 130.99L89.73 125.99V139.87L84.73 134.87V130.99Z" fill="#EEDCFF"/>
<path d="M58.4902 130.99L63.4902 125.99H89.7302L84.7302 130.99H58.4902Z" fill="#E9D2FF"/>
<path d="M58.4902 105.38L63.4902 110.38V125.99L58.4902 130.99V105.38Z" fill="#EEDCFF"/>
<path d="M81.7002 105.38L86.7002 110.38H63.4902L58.4902 105.38H81.7002Z" fill="#C68BFF"/>
<path d="M58.4902 102.01L63.4902 97.01H86.7002L81.7002 102.01H58.4902Z" fill="#E9D2FF"/>
<path d="M81.7002 102.01L86.7002 97.01V110.38L81.7002 105.38V102.01Z" fill="#EEDCFF"/>
<path d="M84.7302 77.63L89.7302 82.63H63.4902L58.4902 77.63H84.7302Z" fill="#C68BFF"/>
<path d="M58.4902 77.63L63.4902 82.63V97.01L58.4902 102.01V77.63Z" fill="#EEDCFF"/>
<path d="M51.1602 73.74L46.1602 68.74H89.7302L84.7302 73.74H51.1602Z" fill="#E9D2FF"/>
<path d="M51.1602 134.87L46.1602 139.87V68.74L51.1602 73.74V134.87Z" fill="#C487FF"/>
<path d="M84.73 73.74L89.73 68.74V82.63L84.73 77.63V73.74Z" fill="#EEDCFF"/>
<path d="M84.7302 73.74V77.63H58.4902V102.01H81.7002V105.38H58.4902V130.99H84.7302V134.87H51.1602V73.74H84.7302Z" fill="#EEDDFF"/>
<path d="M136 134.87L141 139.87H100.98L105.98 134.87H136Z" fill="#C68BFF"/>
<path d="M113.31 131.5L118.31 126.5H141L136 131.5H113.31Z" fill="#E9D2FF"/>
<path d="M136 131.5L141 126.5V139.87L136 134.87V131.5Z" fill="#EEDCFF"/>
<path d="M105.98 73.7401L100.98 68.7401H118.31L113.31 73.7401H105.98Z" fill="#E9D2FF"/>
<path d="M113.31 73.7401L118.31 68.7401V126.5L113.31 131.5V73.7401Z" fill="#EEDCFF"/>
<path d="M113.31 73.7401V131.5H136V134.87H105.98V73.7401H113.31Z" fill="#EEDDFF"/>
<path d="M105.98 134.87L100.98 139.87V68.7401L105.98 73.7401V134.87Z" fill="#C487FF"/>
<defs>
<radialGradient id="paint0_radial_1037_5" cx="0" cy="0" r="1" gradientUnits="userSpaceOnUse" gradientTransform="translate(83.4399 44.38) scale(145.46 145.46)">
<stop stop-color="#8CE4FF"/>
<stop offset="1" stop-color="#217CFF"/>
</radialGradient>
<radialGradient id="paint1_radial_1037_5" cx="0" cy="0" r="1" gradientUnits="userSpaceOnUse" gradientTransform="translate(149.23 73.73) scale(134.76)">
<stop stop-color="#007BFF"/>
<stop offset="1" stop-color="#0050EB"/>
</radialGradient>
<radialGradient id="paint2_radial_1037_5" cx="0" cy="0" r="1" gradientUnits="userSpaceOnUse" gradientTransform="translate(124.03 60.94) scale(111.17 111.17)">
<stop stop-color="#3BB2FF"/>
<stop offset="1" stop-color="#0068FF"/>
</radialGradient>
<radialGradient id="paint3_radial_1037_5" cx="0" cy="0" r="1" gradientUnits="userSpaceOnUse" gradientTransform="translate(134.56 80.0501) scale(199.92 199.92)">
<stop stop-color="#8CE4FF"/>
<stop offset="1" stop-color="#217CFF"/>
</radialGradient>
<radialGradient id="paint4_radial_1037_5" cx="0" cy="0" r="1" gradientUnits="userSpaceOnUse" gradientTransform="translate(101.31 180.22) scale(136.83 136.83)">
<stop stop-color="#007BFF"/>
<stop offset="1" stop-color="#0050EB"/>
</radialGradient>
<radialGradient id="paint5_radial_1037_5" cx="0" cy="0" r="1" gradientUnits="userSpaceOnUse" gradientTransform="translate(63.9899 53.93) scale(121.7 121.7)">
<stop stop-color="#3BB2FF"/>
<stop offset="1" stop-color="#0068FF"/>
</radialGradient>
<radialGradient id="paint6_radial_1037_5" cx="0" cy="0" r="1" gradientUnits="userSpaceOnUse" gradientTransform="translate(198.93 120.64) scale(70.46 70.46)">
<stop offset="0.63" stop-color="white"/>
<stop offset="0.68" stop-color="#FAFBFD"/>
<stop offset="0.74" stop-color="#EBF0F8"/>
<stop offset="0.8" stop-color="#D3DFF0"/>
<stop offset="0.86" stop-color="#B2C7E4"/>
<stop offset="0.93" stop-color="#87A8D6"/>
<stop offset="1" stop-color="#5282C4"/>
</radialGradient>
<radialGradient id="paint7_radial_1037_5" cx="0" cy="0" r="1" gradientUnits="userSpaceOnUse" gradientTransform="translate(75.4697 54.8901) scale(146.13 146.13)">
<stop stop-color="#5CE4FF"/>
<stop offset="1"/>
</radialGradient>
<radialGradient id="paint8_radial_1037_5" cx="0" cy="0" r="1" gradientUnits="userSpaceOnUse" gradientTransform="translate(131.72 138.53) scale(61.19 61.19)">
<stop stop-color="#5CE4FF"/>
<stop offset="1"/>
</radialGradient>
<radialGradient id="paint9_radial_1037_5" cx="0" cy="0" r="1" gradientUnits="userSpaceOnUse" gradientTransform="translate(68.0597 52.0101) scale(146.24 146.24)">
<stop stop-color="#36A1FF"/>
<stop offset="1" stop-color="#0049FF"/>
</radialGradient>
<radialGradient id="paint10_radial_1037_5" cx="0" cy="0" r="1" gradientUnits="userSpaceOnUse" gradientTransform="translate(72.7399 8.93007) scale(89.04 89.04)">
<stop stop-color="#DBF7FF"/>
<stop offset="1" stop-color="#5CC3FF"/>
</radialGradient>
<radialGradient id="paint11_radial_1037_5" cx="0" cy="0" r="1" gradientUnits="userSpaceOnUse" gradientTransform="translate(168.86 29.3901) scale(72.16 72.16)">
<stop stop-color="#8CE4FF"/>
<stop offset="1" stop-color="#217CFF"/>
</radialGradient>
<radialGradient id="paint12_radial_1037_5" cx="0" cy="0" r="1" gradientUnits="userSpaceOnUse" gradientTransform="translate(154.4 140.56) scale(88.35 88.35)">
<stop stop-color="#8CE4FF"/>
<stop offset="1" stop-color="#217CFF"/>
</radialGradient>
<radialGradient id="paint13_radial_1037_5" cx="0" cy="0" r="1" gradientUnits="userSpaceOnUse" gradientTransform="translate(102.09 146.98) scale(85.46 85.46)">
<stop stop-color="#B3EDFF"/>
<stop offset="1" stop-color="#2795FF"/>
</radialGradient>
<radialGradient id="paint14_radial_1037_5" cx="0" cy="0" r="1" gradientUnits="userSpaceOnUse" gradientTransform="translate(31.4898 146.51) scale(98.46 98.46)">
<stop stop-color="#3BB2FF"/>
<stop offset="1" stop-color="#0068FF"/>
</radialGradient>
<radialGradient id="paint15_radial_1037_5" cx="0" cy="0" r="1" gradientUnits="userSpaceOnUse" gradientTransform="translate(50.1998 63.8501) scale(131.19 131.19)">
<stop stop-color="#DBF7FF"/>
<stop offset="1" stop-color="#5CC3FF"/>
</radialGradient>
<radialGradient id="paint16_radial_1037_5" cx="0" cy="0" r="1" gradientUnits="userSpaceOnUse" gradientTransform="translate(-94.7803 135.81) scale(188 188)">
<stop stop-color="#5CE4FF"/>
<stop offset="1"/>
</radialGradient>
<radialGradient id="paint17_radial_1037_5" cx="0" cy="0" r="1" gradientUnits="userSpaceOnUse" gradientTransform="translate(52.1897 -53.9799) scale(176.31 176.31)">
<stop stop-color="#5CE4FF"/>
<stop offset="1"/>
</radialGradient>
<radialGradient id="paint18_radial_1037_5" cx="0" cy="0" r="1" gradientUnits="userSpaceOnUse" gradientTransform="translate(150.29 11.9501) scale(111.52 111.52)">
<stop stop-color="#5CE4FF"/>
<stop offset="1"/>
</radialGradient>
<radialGradient id="paint19_radial_1037_5" cx="0" cy="0" r="1" gradientUnits="userSpaceOnUse" gradientTransform="translate(178.79 36.7001) scale(125.88 125.88)">
<stop stop-color="#5CE4FF"/>
<stop offset="1"/>
</radialGradient>
<radialGradient id="paint20_radial_1037_5" cx="0" cy="0" r="1" gradientUnits="userSpaceOnUse" gradientTransform="translate(157.52 209.25) scale(188.08 188.08)">
<stop stop-color="#5CE4FF"/>
<stop offset="1"/>
</radialGradient>
<radialGradient id="paint21_radial_1037_5" cx="0" cy="0" r="1" gradientUnits="userSpaceOnUse" gradientTransform="translate(55.8097 192.24) scale(122.95 122.95)">
<stop stop-color="#5CE4FF"/>
<stop offset="1"/>
</radialGradient>
<radialGradient id="paint22_radial_1037_5" cx="0" cy="0" r="1" gradientUnits="userSpaceOnUse" gradientTransform="translate(89.2698 167.51) scale(69.71 69.71)">
<stop stop-color="#5CE4FF"/>
<stop offset="1"/>
</radialGradient>
<radialGradient id="paint23_radial_1037_5" cx="0" cy="0" r="1" gradientUnits="userSpaceOnUse" gradientTransform="translate(81.4998 31.61) scale(62.88 62.88)">
<stop stop-color="#5CE4FF"/>
<stop offset="1"/>
</radialGradient>
<radialGradient id="paint24_radial_1037_5" cx="0" cy="0" r="1" gradientUnits="userSpaceOnUse" gradientTransform="translate(37.0798 58.9501) scale(59.76 59.76)">
<stop stop-color="#5CE4FF"/>
<stop offset="1"/>
</radialGradient>
<radialGradient id="paint25_radial_1037_5" cx="0" cy="0" r="1" gradientUnits="userSpaceOnUse" gradientTransform="translate(155.04 141.29) scale(76.58 76.58)">
<stop stop-color="#5CE4FF"/>
<stop offset="1"/>
</radialGradient>
<radialGradient id="paint26_radial_1037_5" cx="0" cy="0" r="1" gradientUnits="userSpaceOnUse" gradientTransform="translate(61.6599 218.13) scale(91.5 91.5)">
<stop offset="0.63" stop-color="white"/>
<stop offset="0.68" stop-color="#FAFBFD"/>
<stop offset="0.74" stop-color="#EBF0F8"/>
<stop offset="0.8" stop-color="#D3DFF0"/>
<stop offset="0.86" stop-color="#B2C7E4"/>
<stop offset="0.93" stop-color="#87A8D6"/>
<stop offset="1" stop-color="#5282C4"/>
</radialGradient>
<radialGradient id="paint27_radial_1037_5" cx="0" cy="0" r="1" gradientUnits="userSpaceOnUse" gradientTransform="translate(22.35 13.09) scale(249.57 249.57)">
<stop stop-color="#FFF70E"/>
<stop offset="0.41" stop-color="#DF14FF"/>
<stop offset="1" stop-color="#00CCB1"/>
</radialGradient>
</defs>
</svg>
