<svg width="195" height="226" viewBox="0 0 195 226" fill="none" xmlns="http://www.w3.org/2000/svg">
<path fill-rule="evenodd" clip-rule="evenodd" d="M97.4699 0.180054L194.79 56.3701V168.74L97.4699 224.93L0.149902 168.74V56.3701L97.4699 0.180054Z" fill="#0068FF"/>
<path fill-rule="evenodd" clip-rule="evenodd" d="M40.1699 79.47L60.6999 73.33L81.8899 61.1001L97.4699 46.3801V0.180054L48.8099 28.2701L0.149902 56.3701L40.1699 79.47Z" fill="url(#paint0_radial_1030_177)"/>
<path fill-rule="evenodd" clip-rule="evenodd" d="M97.4697 46.3801L113.06 61.1001L134.24 73.33L154.78 79.47L194.79 56.3701L146.13 28.2701L97.4697 0.180054V46.3801Z" fill="url(#paint1_radial_1030_177)"/>
<path fill-rule="evenodd" clip-rule="evenodd" d="M154.78 79.4701L149.83 100.33V124.79L154.78 145.64L194.79 168.74V112.56V56.3701L154.78 79.4701Z" fill="url(#paint2_radial_1030_177)"/>
<path fill-rule="evenodd" clip-rule="evenodd" d="M154.78 145.64L134.24 151.78L113.06 164.01L97.4697 178.73V224.93L146.13 196.84L194.79 168.74L154.78 145.64Z" fill="url(#paint3_radial_1030_177)"/>
<path fill-rule="evenodd" clip-rule="evenodd" d="M97.4699 178.73L81.8899 164.01L60.6999 151.78L40.1699 145.64L0.149902 168.74L48.8099 196.84L97.4699 224.93V178.73Z" fill="url(#paint4_radial_1030_177)"/>
<path fill-rule="evenodd" clip-rule="evenodd" d="M40.1699 145.64L45.1199 124.79V100.33L40.1699 79.4701L0.149902 56.3701V112.56V168.74L40.1699 145.64Z" fill="url(#paint5_radial_1030_177)"/>
<path style="mix-blend-mode:multiply" fill-rule="evenodd" clip-rule="evenodd" d="M158.52 108.31C158.52 98.2901 193.87 63.8001 194.79 90.8601V56.3701L164.29 73.9801L158.52 98.3001V108.32V108.31Z" fill="url(#paint6_radial_1030_177)"/>
<path style="mix-blend-mode:screen" fill-rule="evenodd" clip-rule="evenodd" d="M44.1699 30.95C52.4799 30.79 59.4099 55.88 58.1099 64.78L79.2899 52.55C74.0199 47.28 70.7299 15.61 85.8599 6.87L44.1699 30.94V30.95Z" fill="url(#paint7_radial_1030_177)"/>
<path style="mix-blend-mode:screen" fill-rule="evenodd" clip-rule="evenodd" d="M180.74 176.86C167.83 175.94 159.75 174.64 148.06 155.99L140.35 158.3L124.51 167.44C132.75 173.12 148.45 189.59 143.7 198.24L180.74 176.86Z" fill="url(#paint8_radial_1030_177)"/>
<path fill-rule="evenodd" clip-rule="evenodd" d="M115.65 52.55L140.35 66.8201L158.52 98.2901V126.82L140.35 158.3L115.65 172.56H79.2999L54.5999 158.3L36.4199 126.82V98.2901L54.5999 66.8201L79.2999 52.55H115.65Z" fill="url(#paint9_radial_1030_177)"/>
<path fill-rule="evenodd" clip-rule="evenodd" d="M79.2998 52.55L97.4698 35.39L115.65 52.55H79.2998Z" fill="url(#paint10_radial_1030_177)"/>
<path fill-rule="evenodd" clip-rule="evenodd" d="M140.35 66.8201L164.3 73.9701L158.52 98.2901L140.35 66.8201Z" fill="url(#paint11_radial_1030_177)"/>
<path fill-rule="evenodd" clip-rule="evenodd" d="M158.52 126.82L164.3 151.14L140.35 158.3L158.52 126.82Z" fill="url(#paint12_radial_1030_177)"/>
<path fill-rule="evenodd" clip-rule="evenodd" d="M79.2998 172.56L97.4698 189.72L115.65 172.56H79.2998Z" fill="url(#paint13_radial_1030_177)"/>
<path fill-rule="evenodd" clip-rule="evenodd" d="M36.4199 126.82L30.6499 151.14L54.5999 158.3L36.4199 126.82Z" fill="url(#paint14_radial_1030_177)"/>
<path fill-rule="evenodd" clip-rule="evenodd" d="M54.5999 66.8201L30.6499 73.9701L36.4199 98.2901L54.5999 66.8201Z" fill="url(#paint15_radial_1030_177)"/>
<path style="mix-blend-mode:screen" fill-rule="evenodd" clip-rule="evenodd" d="M45.5099 142.56L97.4699 112.56L45.5099 82.5601L36.4199 98.2901V126.82L45.5099 142.56Z" fill="url(#paint16_radial_1030_177)"/>
<path style="mix-blend-mode:screen" fill-rule="evenodd" clip-rule="evenodd" d="M45.5098 82.56L97.4698 112.56V52.55H79.2998L54.5998 66.8201L45.5098 82.56Z" fill="url(#paint17_radial_1030_177)"/>
<path style="mix-blend-mode:screen" opacity="0.5" fill-rule="evenodd" clip-rule="evenodd" d="M97.4697 52.55V112.56L149.44 82.56L140.35 66.8201L115.65 52.55H97.4697Z" fill="url(#paint18_radial_1030_177)"/>
<path style="mix-blend-mode:screen" opacity="0.75" fill-rule="evenodd" clip-rule="evenodd" d="M149.44 82.5601L97.4697 112.56L149.44 142.56L158.52 126.82V98.2901L149.44 82.5601Z" fill="url(#paint19_radial_1030_177)"/>
<path style="mix-blend-mode:screen" opacity="0.5" fill-rule="evenodd" clip-rule="evenodd" d="M149.44 142.56L97.4697 112.56V172.56H115.65L140.35 158.3L149.44 142.56Z" fill="url(#paint20_radial_1030_177)"/>
<path style="mix-blend-mode:screen" opacity="0.5" fill-rule="evenodd" clip-rule="evenodd" d="M97.4698 172.56V112.56L45.5098 142.56L54.5998 158.3L79.2998 172.56H97.4698Z" fill="url(#paint21_radial_1030_177)"/>
<path style="mix-blend-mode:screen" fill-rule="evenodd" clip-rule="evenodd" d="M66.9497 165.43L79.2897 173.71C82.6497 177.33 92.4397 186.72 94.1197 190.68C96.2797 195.75 97.0197 211.77 97.4697 219.75C97.9497 211.31 98.5597 196.24 100.65 190.58C101.05 189.5 101.62 188.49 102.37 187.5L108.83 179.01L101.55 183.45C100.33 184.19 98.9697 184.48 97.6497 184.34C94.1997 183.97 86.8597 177.9 85.2697 174.26L93.8197 172.56L81.2297 171.59L66.9497 165.43Z" fill="url(#paint22_radial_1030_177)"/>
<path style="mix-blend-mode:screen" fill-rule="evenodd" clip-rule="evenodd" d="M66.9497 59.6801L79.2897 51.3901C82.6497 47.7701 92.4397 38.3801 94.1197 34.4201C96.2797 29.3501 97.0197 11.5701 97.4697 3.6001C97.9497 12.0401 98.5597 28.8701 100.65 34.5301C101.05 35.6101 101.62 36.6201 102.37 37.6101L108.83 46.1001L101.55 41.6601C100.33 40.9201 98.9597 40.5301 97.6497 40.7701C93.2497 41.5801 86.6597 47.0101 85.2697 50.8501L93.8197 52.5501L81.2297 53.5201L66.9497 59.6801Z" fill="url(#paint23_radial_1030_177)"/>
<path style="mix-blend-mode:screen" fill-rule="evenodd" clip-rule="evenodd" d="M66.9499 59.6901L53.5999 66.2301C48.7799 67.3301 35.7699 71.1101 31.4899 70.5901C26.0099 69.9201 11.7499 62.5401 4.60986 58.9401C11.6799 63.5801 24.4599 71.6601 28.3099 76.2901C30.5099 78.9301 32.8299 85.7801 34.2499 89.1601C34.1699 85.8301 33.2899 79.4501 35.2199 76.8101C37.2699 74.0101 44.8999 70.7901 50.1399 71.1301L47.3399 79.3901L54.4799 68.9701L66.9599 59.6801L66.9499 59.6901Z" fill="url(#paint24_radial_1030_177)"/>
<path style="mix-blend-mode:screen" fill-rule="evenodd" clip-rule="evenodd" d="M158.52 112.56L159.53 127.39C160.98 132.12 164.22 145.28 166.81 148.72C170.12 153.13 181.73 160.68 188.41 165.06C180.86 161.26 169.4 155.34 163.46 154.32C162.33 154.13 161.16 154.11 159.93 154.27L149.35 155.62L156.84 151.54C158.09 150.86 159.02 149.82 159.56 148.61C160.96 145.44 159.48 136.47 157.02 132.85L151.27 139.41L156.72 128.02L158.53 112.57L158.52 112.56Z" fill="url(#paint25_radial_1030_177)"/>
<path style="mix-blend-mode:multiply" fill-rule="evenodd" clip-rule="evenodd" d="M63.2699 163.3C54.5999 158.29 7.0499 171.66 30.0199 185.99L0.149902 168.74L30.6499 151.13L54.5999 158.29L63.2699 163.3Z" fill="url(#paint26_radial_1030_177)"/>
<g style="mix-blend-mode:color">
<path fill-rule="evenodd" clip-rule="evenodd" d="M97.47 0L146.21 28.14L194.95 56.28V112.56V168.83L146.21 196.97L97.47 225.11L48.74 196.97L0 168.83V112.56V56.28L48.74 28.14L97.47 0Z" fill="url(#paint27_radial_1030_177)"/>
</g>
<defs>
<radialGradient id="paint0_radial_1030_177" cx="0" cy="0" r="1" gradientUnits="userSpaceOnUse" gradientTransform="translate(88.9299 47.3) scale(155.04 155.04)">
<stop stop-color="#8CE4FF"/>
<stop offset="1" stop-color="#217CFF"/>
</radialGradient>
<radialGradient id="paint1_radial_1030_177" cx="0" cy="0" r="1" gradientUnits="userSpaceOnUse" gradientTransform="translate(159.05 78.59) scale(143.63 143.63)">
<stop stop-color="#007BFF"/>
<stop offset="1" stop-color="#0050EB"/>
</radialGradient>
<radialGradient id="paint2_radial_1030_177" cx="0" cy="0" r="1" gradientUnits="userSpaceOnUse" gradientTransform="translate(132.19 64.9501) scale(118.48 118.48)">
<stop stop-color="#3BB2FF"/>
<stop offset="1" stop-color="#0068FF"/>
</radialGradient>
<radialGradient id="paint3_radial_1030_177" cx="0" cy="0" r="1" gradientUnits="userSpaceOnUse" gradientTransform="translate(143.41 85.3201) scale(213.08 213.08)">
<stop stop-color="#8CE4FF"/>
<stop offset="1" stop-color="#217CFF"/>
</radialGradient>
<radialGradient id="paint4_radial_1030_177" cx="0" cy="0" r="1" gradientUnits="userSpaceOnUse" gradientTransform="translate(107.98 192.09) scale(145.84 145.84)">
<stop stop-color="#007BFF"/>
<stop offset="1" stop-color="#0050EB"/>
</radialGradient>
<radialGradient id="paint5_radial_1030_177" cx="0" cy="0" r="1" gradientUnits="userSpaceOnUse" gradientTransform="translate(68.1999 57.4701) scale(129.72 129.72)">
<stop stop-color="#3BB2FF"/>
<stop offset="1" stop-color="#0068FF"/>
</radialGradient>
<radialGradient id="paint6_radial_1030_177" cx="0" cy="0" r="1" gradientUnits="userSpaceOnUse" gradientTransform="translate(212.02 128.58) scale(75.09 75.09)">
<stop offset="0.63" stop-color="white"/>
<stop offset="0.68" stop-color="#FAFBFD"/>
<stop offset="0.74" stop-color="#EBF0F8"/>
<stop offset="0.8" stop-color="#D3DFF0"/>
<stop offset="0.86" stop-color="#B2C7E4"/>
<stop offset="0.93" stop-color="#87A8D6"/>
<stop offset="1" stop-color="#5282C4"/>
</radialGradient>
<radialGradient id="paint7_radial_1030_177" cx="0" cy="0" r="1" gradientUnits="userSpaceOnUse" gradientTransform="translate(80.4399 58.5) scale(155.74 155.74)">
<stop stop-color="#5CE4FF"/>
<stop offset="1"/>
</radialGradient>
<radialGradient id="paint8_radial_1030_177" cx="0" cy="0" r="1" gradientUnits="userSpaceOnUse" gradientTransform="translate(140.39 147.65) scale(65.22 65.22)">
<stop stop-color="#5CE4FF"/>
<stop offset="1"/>
</radialGradient>
<radialGradient id="paint9_radial_1030_177" cx="0" cy="0" r="1" gradientUnits="userSpaceOnUse" gradientTransform="translate(72.5399 55.4301) scale(155.87 155.87)">
<stop stop-color="#36A1FF"/>
<stop offset="1" stop-color="#0049FF"/>
</radialGradient>
<radialGradient id="paint10_radial_1030_177" cx="0" cy="0" r="1" gradientUnits="userSpaceOnUse" gradientTransform="translate(77.5298 9.52001) scale(94.9 94.9)">
<stop stop-color="#DBF7FF"/>
<stop offset="1" stop-color="#5CC3FF"/>
</radialGradient>
<radialGradient id="paint11_radial_1030_177" cx="0" cy="0" r="1" gradientUnits="userSpaceOnUse" gradientTransform="translate(179.98 31.3301) scale(76.91 76.91)">
<stop stop-color="#8CE4FF"/>
<stop offset="1" stop-color="#217CFF"/>
</radialGradient>
<radialGradient id="paint12_radial_1030_177" cx="0" cy="0" r="1" gradientUnits="userSpaceOnUse" gradientTransform="translate(164.56 149.81) scale(94.16 94.16)">
<stop stop-color="#8CE4FF"/>
<stop offset="1" stop-color="#217CFF"/>
</radialGradient>
<radialGradient id="paint13_radial_1030_177" cx="0" cy="0" r="1" gradientUnits="userSpaceOnUse" gradientTransform="translate(108.81 156.66) scale(91.09 91.09)">
<stop stop-color="#B3EDFF"/>
<stop offset="1" stop-color="#2795FF"/>
</radialGradient>
<radialGradient id="paint14_radial_1030_177" cx="0" cy="0" r="1" gradientUnits="userSpaceOnUse" gradientTransform="translate(33.5599 156.16) scale(104.94 104.94)">
<stop stop-color="#3BB2FF"/>
<stop offset="1" stop-color="#0068FF"/>
</radialGradient>
<radialGradient id="paint15_radial_1030_177" cx="0" cy="0" r="1" gradientUnits="userSpaceOnUse" gradientTransform="translate(53.4999 68.0501) scale(139.83 139.83)">
<stop stop-color="#DBF7FF"/>
<stop offset="1" stop-color="#5CC3FF"/>
</radialGradient>
<radialGradient id="paint16_radial_1030_177" cx="0" cy="0" r="1" gradientUnits="userSpaceOnUse" gradientTransform="translate(-101.02 144.74) scale(200.38 200.38)">
<stop stop-color="#5CE4FF"/>
<stop offset="1"/>
</radialGradient>
<radialGradient id="paint17_radial_1030_177" cx="0" cy="0" r="1" gradientUnits="userSpaceOnUse" gradientTransform="translate(55.6198 -57.5299) scale(187.92 187.92)">
<stop stop-color="#5CE4FF"/>
<stop offset="1"/>
</radialGradient>
<radialGradient id="paint18_radial_1030_177" cx="0" cy="0" r="1" gradientUnits="userSpaceOnUse" gradientTransform="translate(160.18 12.7401) scale(118.86 118.86)">
<stop stop-color="#5CE4FF"/>
<stop offset="1"/>
</radialGradient>
<radialGradient id="paint19_radial_1030_177" cx="0" cy="0" r="1" gradientUnits="userSpaceOnUse" gradientTransform="translate(190.56 39.1101) scale(134.17 134.17)">
<stop stop-color="#5CE4FF"/>
<stop offset="1"/>
</radialGradient>
<radialGradient id="paint20_radial_1030_177" cx="0" cy="0" r="1" gradientUnits="userSpaceOnUse" gradientTransform="translate(167.88 223.03) scale(200.46 200.46)">
<stop stop-color="#5CE4FF"/>
<stop offset="1"/>
</radialGradient>
<radialGradient id="paint21_radial_1030_177" cx="0" cy="0" r="1" gradientUnits="userSpaceOnUse" gradientTransform="translate(59.4798 204.89) scale(131.05 131.05)">
<stop stop-color="#5CE4FF"/>
<stop offset="1"/>
</radialGradient>
<radialGradient id="paint22_radial_1030_177" cx="0" cy="0" r="1" gradientUnits="userSpaceOnUse" gradientTransform="translate(95.1397 178.53) scale(74.3 74.3)">
<stop stop-color="#5CE4FF"/>
<stop offset="1"/>
</radialGradient>
<radialGradient id="paint23_radial_1030_177" cx="0" cy="0" r="1" gradientUnits="userSpaceOnUse" gradientTransform="translate(86.8697 33.6901) scale(67.02 67.02)">
<stop stop-color="#5CE4FF"/>
<stop offset="1"/>
</radialGradient>
<radialGradient id="paint24_radial_1030_177" cx="0" cy="0" r="1" gradientUnits="userSpaceOnUse" gradientTransform="translate(39.5199 62.8301) scale(63.69 63.69)">
<stop stop-color="#5CE4FF"/>
<stop offset="1"/>
</radialGradient>
<radialGradient id="paint25_radial_1030_177" cx="0" cy="0" r="1" gradientUnits="userSpaceOnUse" gradientTransform="translate(165.25 150.59) scale(81.62 81.62)">
<stop stop-color="#5CE4FF"/>
<stop offset="1"/>
</radialGradient>
<radialGradient id="paint26_radial_1030_177" cx="0" cy="0" r="1" gradientUnits="userSpaceOnUse" gradientTransform="translate(65.7099 232.49) scale(97.52 97.52)">
<stop offset="0.63" stop-color="white"/>
<stop offset="0.68" stop-color="#FAFBFD"/>
<stop offset="0.74" stop-color="#EBF0F8"/>
<stop offset="0.8" stop-color="#D3DFF0"/>
<stop offset="0.86" stop-color="#B2C7E4"/>
<stop offset="0.93" stop-color="#87A8D6"/>
<stop offset="1" stop-color="#5282C4"/>
</radialGradient>
<radialGradient id="paint27_radial_1030_177" cx="0" cy="0" r="1" gradientUnits="userSpaceOnUse" gradientTransform="translate(97.47 112.56) scale(105.28 105.28)">
<stop stop-color="#BDBDBD"/>
<stop offset="1"/>
</radialGradient>
</defs>
</svg>
