<svg width="226" height="257" viewBox="0 0 226 257" fill="none" xmlns="http://www.w3.org/2000/svg">
<path fill-rule="evenodd" clip-rule="evenodd" d="M112.43 23.1599L203.74 75.8799V181.32L112.43 234.04L21.1201 181.32V75.8799L112.43 23.1599Z" fill="#0068FF"/>
<path fill-rule="evenodd" clip-rule="evenodd" d="M58.6601 97.5599L77.9301 91.7999L97.8101 80.3199L112.43 66.5099V23.1599L66.7801 49.5199L21.1201 75.8799L58.6601 97.5599Z" fill="url(#paint0_radial_1037_69)"/>
<path fill-rule="evenodd" clip-rule="evenodd" d="M112.43 66.5099L127.06 80.3199L146.93 91.7999L166.2 97.5599L203.74 75.8799L158.09 49.5199L112.43 23.1599V66.5099Z" fill="url(#paint1_radial_1037_69)"/>
<path fill-rule="evenodd" clip-rule="evenodd" d="M166.2 97.5599L161.55 117.13V140.08L166.2 159.64L203.74 181.32V128.6V75.8799L166.2 97.5599Z" fill="url(#paint2_radial_1037_69)"/>
<path fill-rule="evenodd" clip-rule="evenodd" d="M166.2 159.64L146.93 165.4L127.06 176.88L112.43 190.69V234.04L158.09 207.68L203.74 181.32L166.2 159.64Z" fill="url(#paint3_radial_1037_69)"/>
<path fill-rule="evenodd" clip-rule="evenodd" d="M112.43 190.69L97.8101 176.88L77.9301 165.4L58.6601 159.64L21.1201 181.32L66.7801 207.68L112.43 234.04V190.69Z" fill="url(#paint4_radial_1037_69)"/>
<path fill-rule="evenodd" clip-rule="evenodd" d="M58.6601 159.64L63.3101 140.08V117.13L58.6601 97.5599L21.1201 75.8799V128.6V181.32L58.6601 159.64Z" fill="url(#paint5_radial_1037_69)"/>
<path style="mix-blend-mode:multiply" fill-rule="evenodd" clip-rule="evenodd" d="M169.71 124.62C169.71 115.22 202.88 82.8599 203.74 108.25V75.8899L175.13 92.4099L169.71 115.23V124.63V124.62Z" fill="url(#paint6_radial_1037_69)"/>
<path style="mix-blend-mode:screen" fill-rule="evenodd" clip-rule="evenodd" d="M62.4302 52.04C70.2302 51.89 76.7202 75.43 75.5102 83.78L95.3802 72.31C90.4402 67.36 87.3502 37.65 101.55 29.45L62.4302 52.04Z" fill="url(#paint7_radial_1037_69)"/>
<path style="mix-blend-mode:screen" fill-rule="evenodd" clip-rule="evenodd" d="M190.56 188.93C178.45 188.06 170.87 186.84 159.9 169.35L152.66 171.51L137.8 180.09C145.53 185.42 160.26 200.87 155.81 208.99L190.56 188.93Z" fill="url(#paint8_radial_1037_69)"/>
<path fill-rule="evenodd" clip-rule="evenodd" d="M129.48 72.3099L152.66 85.6899L169.71 115.22V141.98L152.66 171.52L129.48 184.9H95.3799L72.1999 171.52L55.1499 141.98V115.22L72.1999 85.6899L95.3799 72.3099H129.48Z" fill="url(#paint9_radial_1037_69)"/>
<path fill-rule="evenodd" clip-rule="evenodd" d="M95.3799 72.31L112.43 56.2L129.48 72.31H95.3799Z" fill="url(#paint10_radial_1037_69)"/>
<path fill-rule="evenodd" clip-rule="evenodd" d="M152.66 85.6899L175.13 92.3999L169.71 115.22L152.66 85.6899Z" fill="url(#paint11_radial_1037_69)"/>
<path fill-rule="evenodd" clip-rule="evenodd" d="M169.71 141.98L175.13 164.8L152.66 171.52L169.71 141.98Z" fill="url(#paint12_radial_1037_69)"/>
<path fill-rule="evenodd" clip-rule="evenodd" d="M95.3799 184.9L112.43 201L129.48 184.9H95.3799Z" fill="url(#paint13_radial_1037_69)"/>
<path fill-rule="evenodd" clip-rule="evenodd" d="M55.1502 141.98L49.7402 164.8L72.2002 171.52L55.1502 141.98Z" fill="url(#paint14_radial_1037_69)"/>
<path fill-rule="evenodd" clip-rule="evenodd" d="M72.2002 85.6899L49.7402 92.3999L55.1502 115.22L72.2002 85.6899Z" fill="url(#paint15_radial_1037_69)"/>
<path style="mix-blend-mode:screen" fill-rule="evenodd" clip-rule="evenodd" d="M63.6799 156.75L112.43 128.6L63.6799 100.45L55.1499 115.22V141.98L63.6799 156.75Z" fill="url(#paint16_radial_1037_69)"/>
<path style="mix-blend-mode:screen" fill-rule="evenodd" clip-rule="evenodd" d="M63.6802 100.45L112.43 128.6V72.3099H95.3802L72.2002 85.6899L63.6802 100.45Z" fill="url(#paint17_radial_1037_69)"/>
<path style="mix-blend-mode:screen" opacity="0.5" fill-rule="evenodd" clip-rule="evenodd" d="M112.43 72.3099V128.6L161.18 100.45L152.66 85.6899L129.48 72.3099H112.43Z" fill="url(#paint18_radial_1037_69)"/>
<path style="mix-blend-mode:screen" opacity="0.75" fill-rule="evenodd" clip-rule="evenodd" d="M161.18 100.45L112.43 128.6L161.18 156.75L169.71 141.98V115.22L161.18 100.45Z" fill="url(#paint19_radial_1037_69)"/>
<path style="mix-blend-mode:screen" opacity="0.5" fill-rule="evenodd" clip-rule="evenodd" d="M161.18 156.75L112.43 128.6V184.9H129.48L152.66 171.52L161.18 156.75Z" fill="url(#paint20_radial_1037_69)"/>
<path style="mix-blend-mode:screen" opacity="0.5" fill-rule="evenodd" clip-rule="evenodd" d="M112.43 184.9V128.6L63.6802 156.75L72.2002 171.52L95.3802 184.9H112.43Z" fill="url(#paint21_radial_1037_69)"/>
<path style="mix-blend-mode:screen" fill-rule="evenodd" clip-rule="evenodd" d="M83.79 178.21L95.37 185.98C98.52 189.38 107.71 198.19 109.29 201.9C111.32 206.66 112.01 221.69 112.43 229.17C112.88 221.25 113.45 207.11 115.41 201.8C115.78 200.79 116.32 199.84 117.02 198.91L123.08 190.94L116.25 195.11C115.11 195.81 113.83 196.08 112.59 195.95C109.35 195.6 102.47 189.91 100.98 186.49L109.01 184.9L97.2 183.99L83.8 178.21H83.79Z" fill="url(#paint22_radial_1037_69)"/>
<path style="mix-blend-mode:screen" fill-rule="evenodd" clip-rule="evenodd" d="M83.79 78.9899L95.37 71.2199C98.52 67.8199 107.71 59.0099 109.29 55.2999C111.32 50.5399 112.01 33.8599 112.43 26.3799C112.88 34.2999 113.45 50.0899 115.41 55.3999C115.78 56.4099 116.32 57.3599 117.02 58.2899L123.08 66.2599L116.25 62.0899C115.11 61.3899 113.82 61.0299 112.59 61.2499C108.46 62.0099 102.28 67.0999 100.98 70.7099L109.01 72.3099L97.2 73.2199L83.8 78.9999L83.79 78.9899Z" fill="url(#paint23_radial_1037_69)"/>
<path style="mix-blend-mode:screen" fill-rule="evenodd" clip-rule="evenodd" d="M83.7901 78.9999L71.2701 85.1399C66.7501 86.1699 54.5401 89.7199 50.5301 89.2299C45.3901 88.6099 32.0101 81.6799 25.3101 78.2999C31.9401 82.6499 43.9301 90.2299 47.5501 94.5799C49.6101 97.0599 51.7901 103.49 53.1201 106.65C53.0401 103.53 52.2201 97.5399 54.0301 95.0699C55.9501 92.4399 63.1201 89.4299 68.0301 89.7399L65.4001 97.4899L72.1001 87.7199L83.8001 78.9999H83.7901Z" fill="url(#paint24_radial_1037_69)"/>
<path style="mix-blend-mode:screen" fill-rule="evenodd" clip-rule="evenodd" d="M169.71 128.6L170.65 142.51C172.01 146.94 175.05 159.29 177.48 162.52C180.59 166.65 191.48 173.74 197.75 177.85C190.67 174.28 179.91 168.73 174.34 167.77C173.28 167.59 172.19 167.57 171.03 167.72L161.1 168.98L168.13 165.15C169.3 164.51 170.18 163.54 170.68 162.4C172 159.42 170.61 151.01 168.3 147.61L162.91 153.76L168.03 143.08L169.73 128.58L169.71 128.6Z" fill="url(#paint25_radial_1037_69)"/>
<path style="mix-blend-mode:multiply" fill-rule="evenodd" clip-rule="evenodd" d="M80.3401 176.21C72.2001 171.51 27.5901 184.06 49.1501 197.5L21.1201 181.32L49.7301 164.8L72.2001 171.52L80.3401 176.22V176.21Z" fill="url(#paint26_radial_1037_69)"/>
<path fill-rule="evenodd" clip-rule="evenodd" d="M10.38 69.43C23.71 61.73 37.05 54.03 50.38 46.34C71.14 34.35 91.9 22.37 112.66 10.38V0.349976C103.58 5.58998 94.33 10.79 85.32 16.13C82.63 17.72 81.12 18.91 78.68 20.77C76.98 22.06 73.38 23.23 71.18 24.37C66.23 26.92 60.83 30.26 55.95 33.09C53.59 34.46 51.23 35.82 48.87 37.19C46.76 38.41 46.23 38.85 45.14 41.04C44.76 41.8 44.72 41.81 43.79 41.82C40.42 41.87 39.96 42.34 37.15 43.96C30.45 47.83 23.74 51.7 17.04 55.57C14.91 56.8 11.34 58.61 9.75996 60.36C9.11996 61.07 7.67996 61.35 6.76996 61.71C5.04996 62.41 3.31996 63.48 1.70996 64.42L10.4 69.44L10.38 69.43Z" fill="url(#paint27_radial_1037_69)"/>
<path fill-rule="evenodd" clip-rule="evenodd" d="M112.66 10.38C146.75 30.06 180.85 49.75 214.94 69.43L223.63 64.41C221.52 63.19 219.42 61.98 217.31 60.76C212.74 58.12 208.18 55.49 203.61 52.85C201.27 51.5 198.93 50.15 196.59 48.8C193.53 47.03 190.03 44.8 186.8 43.49C184.45 42.54 183.33 41.22 181.21 39.93C179.36 38.81 177.4 37.72 175.52 36.63C171.07 34.06 166.62 31.42 162.16 28.88C160.84 28.13 160.37 28 158.89 27.73C157.94 27.56 157.88 27.01 157.22 26.33C156.18 25.25 152.91 23.54 151.45 22.71C150.56 22.2 149.66 21.69 148.77 21.19C145.42 19.29 142.79 18.22 139.3 16.71C135.95 15.26 137.61 15.4 135.35 13.65C133.5 12.22 130.55 10.66 128.47 9.45997C123.2 6.41997 117.93 3.37997 112.67 0.339966V10.37L112.66 10.38Z" fill="url(#paint28_radial_1037_69)"/>
<path fill-rule="evenodd" clip-rule="evenodd" d="M99.4399 30.93L112.44 23.5L112.66 10.38L10.3799 69.44L21.1399 75.89L57.9699 54.61L99.4399 30.93Z" fill="url(#paint29_radial_1037_69)"/>
<path fill-rule="evenodd" clip-rule="evenodd" d="M112.44 23.5L158.09 49.52L203.74 75.89L214.94 69.43L112.66 10.38L112.44 23.5Z" fill="url(#paint30_radial_1037_69)"/>
<path fill-rule="evenodd" clip-rule="evenodd" d="M10.38 187.54V69.4399L1.69003 64.4199C1.69003 67.9999 1.61002 71.7899 1.71002 75.3499C1.86002 79.0899 2.69003 81.6999 3.55003 85.2099C4.34003 88.4399 2.19003 86.1799 1.76003 90.3599C1.50003 92.8599 1.68002 96.1599 1.68002 98.7599C1.68002 110.47 1.58002 122.26 1.68002 133.96C1.70002 136.33 1.68002 137.2 2.57002 139.38C3.08002 140.62 2.08002 144.5 1.89002 146.12C1.48002 149.57 1.68002 154.57 1.68002 158.17C1.68002 161.22 1.59002 164.42 1.68002 167.46C1.74002 169.34 2.35003 169.79 3.80003 170.73C5.05003 171.55 3.94003 171.61 3.05003 172.13C1.31003 173.15 1.67002 174.99 1.68002 176.73C1.68002 182 1.77002 188.17 0.0200195 193.51L10.37 187.53L10.38 187.54Z" fill="url(#paint31_radial_1037_69)"/>
<path fill-rule="evenodd" clip-rule="evenodd" d="M10.3799 69.4399V187.54L21.1199 181.32V128.6L21.1399 75.8899L10.3799 69.4399Z" fill="url(#paint32_radial_1037_69)"/>
<path fill-rule="evenodd" clip-rule="evenodd" d="M203.66 106.87L203.74 128.6V181.72L214.94 187.54V69.4299L203.74 75.8899L203.66 106.87Z" fill="url(#paint33_radial_1037_69)"/>
<path fill-rule="evenodd" clip-rule="evenodd" d="M214.94 69.4299V187.53L225.09 193.39C225.09 191.4 223.63 188.57 223.63 186.58C223.63 173.59 223.67 160.58 223.63 147.6C223.63 146.06 223.76 144.3 222.82 142.99C222.35 142.33 222.88 139.7 223 138.81C223.5 135.09 223.64 132.09 223.64 128.33C223.64 123.78 223.71 119.1 223.64 114.56C223.61 112.83 223.34 111.58 223.2 109.95C223.07 108.47 223.55 106.95 223.62 105.37C223.75 102.56 223.65 99.3699 223.65 96.5199V64.4099L214.96 69.4299H214.94Z" fill="url(#paint34_radial_1037_69)"/>
<path fill-rule="evenodd" clip-rule="evenodd" d="M66.7799 207.68L48.5899 196.84L21.1199 181.32L10.3799 187.54L112.66 246.59L112.43 234.04L66.7799 207.68Z" fill="url(#paint35_radial_1037_69)"/>
<path fill-rule="evenodd" clip-rule="evenodd" d="M112.66 246.59C107.21 243.44 101.75 240.29 96.3 237.14C94.75 236.25 93.21 235.36 91.66 234.46C86.3 231.36 80.93 228.27 75.57 225.17C70.12 222.02 64.66 218.87 59.21 215.72C57.57 214.78 55.94 213.83 54.3 212.89C48.85 209.74 43.39 206.59 37.94 203.44C36.21 202.44 34.49 201.45 32.76 200.45C25.58 196.3 18.4 192.16 11.21 188.01L10.39 187.54L0.0400391 193.52C2.43004 193.86 5.34004 194.66 7.16004 195.71C10.88 197.86 14.61 200.07 18.35 202.19C20.25 203.27 21.41 203.77 23.46 204.44C24.46 204.77 24.71 205.46 25.56 206.16C27.22 207.53 30.79 209.41 32.78 210.55C35.42 212.06 38.06 213.57 40.7 215.07C41.97 215.78 43.85 217.04 45.25 216.01C45.67 215.7 45.84 215.44 46.5 215.68C46.89 215.82 49.02 218.88 49.49 219.44C50.74 220.92 52.14 221.68 53.79 222.63C59.24 225.78 64.7 228.93 70.15 232.07C73.69 234.12 77.24 236.16 80.78 238.21C82.17 239.01 84.51 240.55 86 240.8C86.54 240.89 88.26 240.87 88.49 240.96C88.83 241.09 88.83 241.39 88.96 241.76C89.65 243.66 91.36 244.33 93 245.27C99.56 249.06 106.12 252.84 112.68 256.63V246.6L112.66 246.59Z" fill="url(#paint36_radial_1037_69)"/>
<path fill-rule="evenodd" clip-rule="evenodd" d="M136.81 219.96L112.43 234.04L112.66 246.59L214.94 187.54L203.74 181.72L178.6 195.83L156.88 208.49L136.81 219.96Z" fill="url(#paint37_radial_1037_69)"/>
<path fill-rule="evenodd" clip-rule="evenodd" d="M214.94 187.54L112.66 246.59V256.62C114.42 255.6 116.18 254.59 117.94 253.57C122.78 250.77 127.63 247.98 132.47 245.18C135.46 243.47 138.43 242.13 140.58 239.34C141.1 238.67 142.1 237.06 143.01 237.1C144.67 237.19 145.15 237.87 146.72 236.66C146.94 236.49 147.82 235.58 147.95 235.53C147.95 235.53 148.77 235.49 149.08 235.41C149.95 235.18 150.97 234.5 151.76 234.04C152.73 233.48 153.7 232.92 154.67 232.36C158.1 230.38 161.54 228.39 164.97 226.41C166.73 225.39 168.49 224.38 170.25 223.36C172.01 222.34 173.77 221.33 175.53 220.31C177.29 219.29 179.05 218.28 180.81 217.26C183.65 215.62 186.72 213.95 189.48 212.23C190.95 211.31 191.46 210.94 192.4 209.53C192.84 208.87 194.71 208.29 195.51 207.95C198.54 206.66 200.92 205.65 203.81 203.98L214.17 198C215.28 197.36 221.93 195.2 225.09 193.38L214.94 187.52V187.54Z" fill="url(#paint38_radial_1037_69)"/>
<path style="mix-blend-mode:screen" fill-rule="evenodd" clip-rule="evenodd" d="M65.0698 37.8599L109.01 11.1699C109.82 10.6799 110.47 10.0599 110.96 9.31994C112.13 7.54994 112.35 3.61994 112.66 1.43994C112.96 3.56994 113.2 7.61994 114.29 9.36994C114.73 10.0799 115.33 10.6899 116.07 11.1899L127.98 19.2299L115.5 13.1999C113.66 12.3099 111.69 12.3599 109.9 13.3399L65.0798 37.8599H65.0698Z" fill="url(#paint39_radial_1037_69)"/>
<path style="mix-blend-mode:screen" fill-rule="evenodd" clip-rule="evenodd" d="M154.54 222.41L212.43 190.32C213.26 189.86 214.13 189.6 215.02 189.54C217.15 189.41 220.65 191.18 222.69 192C220.97 190.66 217.64 188.49 216.68 186.61C216.29 185.84 216.07 184.98 216.03 184.05L214.94 156.36L213.83 183.51C213.74 185.63 212.69 187.41 210.87 188.5L154.54 222.39V222.41Z" fill="url(#paint40_radial_1037_69)"/>
<path style="mix-blend-mode:screen" fill-rule="evenodd" clip-rule="evenodd" d="M57.9601 41.96L12.8801 66.67C12.0501 67.13 11.1801 67.38 10.3101 67.43C8.19014 67.56 4.68014 65.78 2.64014 64.96C4.38014 66.32 7.66014 68.45 8.61014 70.36C9.00014 71.15 9.22014 72.04 9.23014 72.99L10.3801 137.54L11.5701 73.52C11.6101 71.36 12.6601 69.53 14.5101 68.41L57.9701 41.97L57.9601 41.96Z" fill="url(#paint41_radial_1037_69)"/>
<path style="mix-blend-mode:screen" fill-rule="evenodd" clip-rule="evenodd" d="M57.9601 215.01L12.8801 190.3C12.0501 189.84 11.1801 189.59 10.3101 189.54C8.19014 189.41 4.68014 191.19 2.64014 192.01C4.36014 190.67 7.68014 188.5 8.64014 186.62C9.03014 185.84 9.25014 184.98 9.28014 184.04L10.3801 150.84L11.5101 183.51C11.5801 185.63 12.6301 187.42 14.4401 188.53L57.9601 215.01Z" fill="url(#paint42_radial_1037_69)"/>
<path style="mix-blend-mode:screen" fill-rule="evenodd" clip-rule="evenodd" d="M7.68022 172.05C6.27022 172.11 4.43022 172.26 3.70022 173.47C3.15022 174.37 1.91022 188.97 3.19022 189.07C4.53022 189.18 6.11022 188.04 7.27022 186.81C9.04022 184.93 8.88022 175.68 8.55022 173.26C8.48022 172.77 8.17022 172.03 7.67022 172.05H7.68022Z" fill="url(#paint43_radial_1037_69)"/>
<path style="mix-blend-mode:screen" fill-rule="evenodd" clip-rule="evenodd" d="M8.25983 138.25C5.86983 138.41 3.02983 144.93 2.92983 147.62C2.72983 153.3 2.53983 159 2.85983 164.67C2.99983 167.25 7.61983 170.8 8.31983 169.32C8.89983 168.1 9.08983 166.69 9.12983 165.34C9.21983 162.55 9.57983 138.15 8.24983 138.24L8.25983 138.25Z" fill="url(#paint44_radial_1037_69)"/>
<path style="mix-blend-mode:screen" opacity="0.5" fill-rule="evenodd" clip-rule="evenodd" d="M8.02 85.43C4.96 86.03 2.53 89.14 2.49 92.17C2.32 105.97 2.42 119.77 2.89 133.56C3.04 137.98 8.71 131.25 8.82 126.55C9.15 113.61 9.21 100.66 8.96 87.72C8.94 86.89 8.83 85.27 8.02 85.43Z" fill="url(#paint45_radial_1037_69)"/>
<path style="mix-blend-mode:screen" fill-rule="evenodd" clip-rule="evenodd" d="M46.4098 43.64C45.7498 43.02 41.0798 42.98 39.4698 43.91C30.1698 49.27 20.8598 54.64 11.7598 60.36C10.5398 61.13 9.2798 64.35 9.4698 65.69C9.5698 66.35 12.1798 65.91 12.7098 65.62C23.1298 60.02 33.5398 54.4 43.7898 48.5C44.8498 47.89 47.1898 44.37 46.4198 43.65L46.4098 43.64Z" fill="url(#paint46_radial_1037_69)"/>
<path style="mix-blend-mode:screen" fill-rule="evenodd" clip-rule="evenodd" d="M50.3402 37.5899C58.3502 32.6199 66.5502 27.9299 75.0102 23.7699C77.6802 22.4599 87.2502 23.18 84.3802 24.98C80.7302 27.27 50.4702 46.11 49.2602 44.33C48.2002 42.76 48.9602 38.4399 50.3402 37.5899Z" fill="url(#paint47_radial_1037_69)"/>
<path style="mix-blend-mode:screen" fill-rule="evenodd" clip-rule="evenodd" d="M109.86 9.31C108.7 11.12 96.38 17.58 89.1 22.15C85.73 24.26 79.88 20.95 82.12 19.49C90.89 13.77 99.15 8.93001 108.31 4.08001C112.54 1.84001 110.09 8.94 109.86 9.31Z" fill="url(#paint48_radial_1037_69)"/>
<path style="mix-blend-mode:screen" opacity="0.5" fill-rule="evenodd" clip-rule="evenodd" d="M7.70978 192.32C8.51978 191.65 9.58978 191.2 10.6398 191.11C13.3498 190.86 23.2998 196.07 23.8198 198.12C24.2198 199.7 24.3798 202.16 23.8498 203.01C22.6298 204.98 8.98979 196.34 7.03979 194.64C6.38979 194.07 6.32978 193.46 7.69978 192.33L7.70978 192.32Z" fill="url(#paint49_radial_1037_69)"/>
<path style="mix-blend-mode:screen" opacity="0.5" fill-rule="evenodd" clip-rule="evenodd" d="M89.4699 238.2C88.6599 238.87 87.5899 239.32 86.5399 239.41C83.8299 239.66 51.5199 220.22 50.3799 218.45C49.2699 216.74 48.2099 213.36 48.7299 212.52C49.9499 210.55 87.8599 232.84 90.1399 235.89C90.6599 236.58 90.8499 237.07 89.4799 238.2H89.4699Z" fill="url(#paint50_radial_1037_69)"/>
<path style="mix-blend-mode:screen" opacity="0.5" fill-rule="evenodd" clip-rule="evenodd" d="M93.69 237.95C96.4 237.7 111.07 246.35 111.59 248.4C111.99 249.98 112.15 252.44 111.62 253.29C110.4 255.26 90.28 243.63 90.03 241.38C89.87 239.94 91.77 238.13 93.69 237.95Z" fill="url(#paint51_radial_1037_69)"/>
<path style="mix-blend-mode:screen" fill-rule="evenodd" clip-rule="evenodd" d="M139.59 234.18C136.88 233.93 114.52 246.09 114.01 248.13C113.61 249.71 113.45 252.17 113.98 253.02C115.2 254.99 136.73 241.76 138.67 240.07C140.4 238.56 141.04 234.32 139.59 234.18Z" fill="url(#paint52_radial_1037_69)"/>
<path style="mix-blend-mode:screen" fill-rule="evenodd" clip-rule="evenodd" d="M190.82 204.52C188.11 204.27 143.64 229.23 143.13 231.28C142.73 232.86 143.05 234.31 143.57 235.16C144.79 237.13 187.95 212.11 189.9 210.41C191.63 208.9 192.27 204.66 190.82 204.52Z" fill="url(#paint53_radial_1037_69)"/>
<path style="mix-blend-mode:screen" fill-rule="evenodd" clip-rule="evenodd" d="M213.94 190.84C211.51 191.56 194.25 201.08 193.48 202.3C192.61 203.67 192.89 206.36 193.45 207.19C194.35 208.53 217.35 195.6 218.75 194.64C220.65 193.35 215.33 190.43 213.94 190.84Z" fill="url(#paint54_radial_1037_69)"/>
<path style="mix-blend-mode:screen" fill-rule="evenodd" clip-rule="evenodd" d="M114.63 8.76996C115.79 10.58 121.23 12.86 128.52 17.43C131.89 19.54 137.74 16.23 135.5 14.77C126.73 9.04996 125.35 8.38997 116.19 3.53997C111.96 1.29997 114.41 8.39996 114.64 8.76996H114.63Z" fill="url(#paint55_radial_1037_69)"/>
<path style="mix-blend-mode:screen" fill-rule="evenodd" clip-rule="evenodd" d="M155.66 26.1299C147.65 21.1599 150.97 22.9399 142.52 18.7799C139.85 17.4699 131.06 18.4099 133.18 20.4999C135.77 23.0399 155.53 34.6499 156.74 32.8699C157.8 31.2999 157.04 26.9799 155.66 26.1299Z" fill="url(#paint56_radial_1037_69)"/>
<path style="mix-blend-mode:screen" opacity="0.5" fill-rule="evenodd" clip-rule="evenodd" d="M159.37 36.29C168.14 40.4 205.58 62.24 213.36 67.16C215.87 68.75 221.93 64.6 219.26 63.28C217.43 62.38 199.74 52.86 184.15 43.87C170.97 36.27 160.48 28.39 158.56 29.34C157.4 29.91 157.9 35.6 159.37 36.28V36.29Z" fill="url(#paint57_radial_1037_69)"/>
<path style="mix-blend-mode:screen" opacity="0.3" fill-rule="evenodd" clip-rule="evenodd" d="M222.66 105.42C222.82 91.74 222.8 83.53 222.32 69.42C222.17 64.9 216.48 70.36 216.39 72.42C215.89 83.93 215.93 95.15 216.19 108.26C216.31 114.3 222.62 108.97 222.66 105.42Z" fill="url(#paint58_radial_1037_69)"/>
<path style="mix-blend-mode:screen" opacity="0.3" fill-rule="evenodd" clip-rule="evenodd" d="M221.4 139.3C219.28 139.77 216.3 135.24 216.21 132.56C216.01 126.88 215.83 121.18 216.14 115.51C216.28 112.93 220.9 109.38 221.6 110.86C222.18 112.08 222.37 113.49 222.41 114.84C222.5 117.63 222.93 138.97 221.4 139.31V139.3Z" fill="url(#paint59_radial_1037_69)"/>
<path style="mix-blend-mode:screen" opacity="0.3" fill-rule="evenodd" clip-rule="evenodd" d="M222.13 149.42C222.27 163.1 222.25 171.31 221.84 185.42C221.71 189.94 216.8 184.48 216.72 182.42C216.29 170.91 216.33 159.69 216.54 146.58C216.64 140.54 222.09 145.87 222.13 149.42Z" fill="url(#paint60_radial_1037_69)"/>
<g style="mix-blend-mode:color">
<path fill-rule="evenodd" clip-rule="evenodd" d="M112.56 22.88L158.28 49.29L204.01 75.68V128.49V181.29L158.28 207.69L112.56 234.09L66.8301 207.69L21.1001 181.29V128.49V75.68L66.8301 49.29L112.56 22.88Z" fill="url(#paint61_radial_1037_69)"/>
</g>
<path d="M134.43 156.63L143.13 161.63H123.57L126.53 156.63H134.43Z" fill="#C68BFF"/>
<path d="M99.6198 156.63L104.62 161.63H87.2998L92.2998 156.63H99.6198Z" fill="#C68BFF"/>
<path d="M119.19 130.48L126.72 133.46L143.13 161.63L134.43 156.63L119.19 130.48Z" fill="#F8F0FF"/>
<path d="M99.6196 129.78L104.62 134.78V161.63L99.6196 156.63V129.78Z" fill="#EEDCFF"/>
<path d="M111.73 129.78L108.78 134.78H104.62L99.6196 129.78H111.73Z" fill="#C68BFF"/>
<path d="M126.53 156.63L123.57 161.63L108.78 134.78L111.73 129.78L126.53 156.63Z" fill="#C283FF"/>
<path d="M99.6196 127.52L104.62 122.52H115.37V127.52H99.6196Z" fill="#E9D2FF"/>
<mask id="mask0_1037_69" style="mask-type:luminance" maskUnits="userSpaceOnUse" x="115" y="120" width="11" height="8">
<path d="M115.37 127.52V122.52C118.55 122.52 120.92 121.75 122.51 120.2L126 123.78C123.29 126.42 121.32 128.2 115.37 127.53V127.52Z" fill="white"/>
</mask>
<g mask="url(#mask0_1037_69)">
<path d="M115.37 127.52V122.52C115.7 122.52 116.02 122.52 116.34 122.49L117.11 127.65C116.57 127.63 116 127.59 115.38 127.52" fill="#E4C7FF"/>
<path d="M117.1 127.65L116.33 122.49C116.72 122.47 117.09 122.44 117.45 122.39L118.93 127.61C118.37 127.66 117.76 127.67 117.1 127.65Z" fill="#E1C2FF"/>
<path d="M118.93 127.61L117.45 122.39C117.72 122.36 117.99 122.31 118.24 122.26L120.11 127.44C119.74 127.51 119.34 127.57 118.92 127.61" fill="#DFBDFF"/>
<path d="M120.12 127.44L118.25 122.26C118.47 122.22 118.68 122.17 118.89 122.12L121.03 127.21C120.74 127.3 120.44 127.38 120.13 127.44" fill="#DCB8FF"/>
<path d="M121.02 127.21L118.88 122.12C119.07 122.07 119.25 122.02 119.44 121.96L121.77 126.93C121.53 127.03 121.28 127.12 121.02 127.2" fill="#DAB3FF"/>
<path d="M121.78 126.94L119.45 121.97C119.63 121.91 119.8 121.86 119.96 121.79L122.46 126.62C122.24 126.74 122.02 126.84 121.79 126.94" fill="#D7ADFF"/>
<path d="M122.45 126.62L119.95 121.79C120.12 121.73 120.29 121.66 120.45 121.58L123.09 126.24C122.88 126.37 122.67 126.5 122.44 126.62" fill="#D5A8FF"/>
<path d="M123.099 126.24L120.459 121.58C120.639 121.5 120.809 121.41 120.969 121.32L123.769 125.77C123.549 125.94 123.329 126.09 123.099 126.24Z" fill="#D2A3FF"/>
<path d="M123.759 125.77L120.959 121.32C121.159 121.21 121.349 121.1 121.529 120.97L124.519 125.14C124.269 125.36 124.009 125.57 123.749 125.77" fill="#D09EFF"/>
<path d="M124.53 125.14L121.54 120.97C121.82 120.78 122.08 120.58 122.32 120.36L125.69 124.06C125.3 124.44 124.92 124.8 124.53 125.13" fill="#CD99FF"/>
<path d="M125.69 124.07L122.32 120.37C122.38 120.31 122.45 120.25 122.51 120.19L126 123.77C125.9 123.87 125.79 123.97 125.69 124.07Z" fill="#CB94FF"/>
</g>
<path d="M115.37 99.88V104.88H104.62L99.6196 99.88H115.37Z" fill="#C68BFF"/>
<path d="M99.6196 99.88L104.62 104.88V122.52L99.6196 127.52V99.88Z" fill="#EEDCFF"/>
<mask id="mask1_1037_69" style="mask-type:luminance" maskUnits="userSpaceOnUse" x="115" y="99" width="16" height="25">
<path d="M126 123.77L122.51 120.19C124.1 118.63 124.9 116.44 124.9 113.6C124.9 110.76 124.11 108.77 122.51 107.21C120.93 105.66 118.55 104.88 115.37 104.88V99.88C121.33 99.21 123.3 101 126 103.64C128.67 106.25 130.48 107.85 129.89 113.61C130.51 119.45 128.69 121.14 126 123.77Z" fill="white"/>
</mask>
<g mask="url(#mask1_1037_69)">
<path d="M126 123.77L122.51 120.19C122.88 119.82 123.22 119.42 123.5 118.99L127.74 122C127.22 122.58 126.64 123.15 126.01 123.77" fill="#CB94FF"/>
<path d="M127.73 122L123.49 118.99C123.74 118.61 123.95 118.21 124.13 117.79L128.89 120.44C128.56 121 128.17 121.51 127.73 122.01" fill="#C88FFF"/>
<path d="M128.889 120.43L124.129 117.78C124.309 117.36 124.459 116.91 124.569 116.44L129.669 118.57C129.479 119.27 129.219 119.87 128.889 120.43Z" fill="#C68AFF"/>
<path d="M129.67 118.57L124.57 116.44C124.78 115.58 124.88 114.63 124.88 113.6C124.88 110.9 124.09 108.77 122.49 107.21C120.91 105.66 118.53 104.88 115.35 104.88V99.88C121.31 99.21 123.28 101 125.98 103.64C128.65 106.25 130.46 107.85 129.87 113.61C130.09 115.73 130 117.3 129.65 118.57" fill="#C385FF"/>
</g>
<path d="M92.2998 95.5L87.2998 90.5H116.38V95.5H92.2998Z" fill="#E9D2FF"/>
<path d="M92.2998 156.63L87.2998 161.63V90.5L92.2998 95.5V156.63Z" fill="#C487FF"/>
<mask id="mask2_1037_69" style="mask-type:luminance" maskUnits="userSpaceOnUse" x="116" y="90" width="27" height="44">
<path d="M116.38 95.5V90.5C121.98 90.5 126.76 91.48 130.72 93.43C134.67 95.39 137.62 98.07 139.59 101.49C141.54 104.9 142.52 108.71 142.52 112.89C142.52 117.61 141.19 121.84 138.52 125.55C135.85 129.27 131.91 131.9 126.71 133.45L119.19 130.47C127.94 127.24 132.49 125.37 134.46 122.63C135.23 120.63 136.97 115.18 137.52 112.88C136.98 110.66 136.75 106.59 135.25 103.97C133.81 101.47 130.21 99.39 128.5 97.91C125.32 96.34 120.38 96.04 116.38 95.49V95.5Z" fill="white"/>
</mask>
<g mask="url(#mask2_1037_69)">
<path d="M116.38 95.5V90.5C117.16 90.5 117.93 90.52 118.68 90.56L118.1 95.72C117.51 95.65 116.93 95.58 116.37 95.5" fill="#E4C7FF"/>
<path d="M118.11 95.7201L118.69 90.5601C120.19 90.6401 121.63 90.7901 123 91.0201L121.72 96.1701C120.52 96.0001 119.3 95.8601 118.12 95.7201" fill="#E6CCFF"/>
<path d="M121.71 96.17L122.99 91.02C124.42 91.26 125.78 91.58 127.07 91.98L125.36 96.83C124.2 96.55 122.97 96.34 121.71 96.16" fill="#E9D1FF"/>
<path d="M125.36 96.83L127.07 91.98C128.05 92.29 128.98 92.64 129.88 93.04L127.81 97.61C127.06 97.3 126.23 97.05 125.36 96.84" fill="#EBD6FF"/>
<path d="M127.81 97.61L129.88 93.04C130.17 93.17 130.45 93.3 130.72 93.44C130.76 93.46 130.79 93.4801 130.83 93.4901L128.55 97.9601C128.55 97.9601 128.52 97.93 128.5 97.92C128.28 97.81 128.05 97.71 127.81 97.61Z" fill="#EEDBFF"/>
<path d="M128.55 97.96L130.83 93.49C131.94 94.05 132.98 94.67 133.93 95.34L130.38 99.37C129.68 98.86 129.04 98.38 128.55 97.96Z" fill="#F0E0FF"/>
<path d="M130.38 99.37L133.93 95.34C135.89 96.73 137.52 98.37 138.81 100.25L134.62 103.06C133.5 101.66 131.82 100.42 130.38 99.36" fill="#F3E6FF"/>
<path d="M134.62 103.07L138.81 100.26C139.08 100.66 139.34 101.07 139.59 101.5C140.07 102.33 140.49 103.19 140.85 104.07L136.15 106.12C135.91 105.35 135.62 104.63 135.25 103.99C135.07 103.68 134.86 103.38 134.62 103.08" fill="#F0E0FF"/>
<path d="M136.14 106.11L140.84 104.06C141.41 105.44 141.83 106.88 142.11 108.38L136.96 109.82C136.76 108.62 136.51 107.32 136.14 106.12" fill="#EEDBFF"/>
<path d="M136.96 109.82L142.11 108.38C142.31 109.44 142.43 110.54 142.49 111.66L137.37 112.19C137.24 111.49 137.11 110.68 136.97 109.83" fill="#EBD6FF"/>
<path d="M137.37 112.18L142.49 111.65C142.51 112.06 142.52 112.47 142.52 112.89C142.52 112.95 142.52 113.01 142.52 113.07L137.5 112.98C137.5 112.98 137.51 112.92 137.52 112.89C137.47 112.67 137.42 112.43 137.37 112.17" fill="#E9D1FF"/>
<path d="M137.5 112.98L142.52 113.07C142.52 113.19 142.52 113.31 142.52 113.43L137.46 113.17C137.48 113.11 137.49 113.04 137.51 112.98" fill="#E6CCFF"/>
<path d="M137.45 113.17L142.51 113.43C142.49 114.46 142.4 115.47 142.25 116.46L136.89 115.19C137.11 114.42 137.31 113.72 137.45 113.16" fill="#E4C7FF"/>
<path d="M136.89 115.2L142.25 116.47C142.06 117.68 141.78 118.85 141.4 119.98L135.97 118.22C136.3 117.2 136.62 116.15 136.89 115.2Z" fill="#E1C2FF"/>
<path d="M135.97 118.21L141.4 119.97C141.17 120.64 140.91 121.3 140.62 121.95L135.4 119.97C135.59 119.41 135.78 118.81 135.97 118.2" fill="#DFBDFF"/>
<path d="M135.39 119.98L140.61 121.96C140.39 122.45 140.15 122.92 139.89 123.4L134.99 121.18C135.12 120.81 135.25 120.41 135.39 119.98Z" fill="#DCB8FF"/>
<path d="M134.99 121.18L139.89 123.4C139.67 123.79 139.44 124.18 139.2 124.57L134.69 122.04C134.78 121.78 134.88 121.49 134.99 121.19" fill="#DAB3FF"/>
<path d="M134.69 122.03L139.2 124.56C138.99 124.9 138.76 125.23 138.53 125.56L134.47 122.64C134.54 122.46 134.61 122.26 134.7 122.03" fill="#D7ADFF"/>
<path d="M134.46 122.65L138.52 125.57C138.43 125.69 138.34 125.81 138.25 125.93L134.25 122.92C134.32 122.83 134.39 122.74 134.45 122.66" fill="#D5A8FF"/>
<path d="M134.26 122.91L138.26 125.92C138.09 126.15 137.91 126.37 137.73 126.59L133.83 123.4C133.99 123.24 134.13 123.07 134.26 122.9" fill="#D2A3FF"/>
<path d="M133.82 123.41L137.72 126.6C137.39 127 137.04 127.39 136.67 127.76L132.86 124.27C133.22 123.99 133.54 123.7 133.82 123.4" fill="#D09EFF"/>
<path d="M132.86 124.28L136.67 127.77C136.13 128.32 135.56 128.83 134.96 129.32L131.05 125.51C131.74 125.11 132.35 124.71 132.87 124.29" fill="#CD99FF"/>
<path d="M131.04 125.49L134.95 129.3C133.93 130.12 132.81 130.85 131.58 131.49L126.73 127.56C128.44 126.84 129.87 126.16 131.04 125.49Z" fill="#CB94FF"/>
<path d="M126.73 127.57L131.58 131.5C130.18 132.24 128.66 132.86 127 133.37L119.67 130.3C122.44 129.28 124.77 128.39 126.73 127.57Z" fill="#C88FFF"/>
<path d="M119.68 130.3L127.01 133.37C126.91 133.4 126.82 133.43 126.72 133.46L119.2 130.48C119.36 130.42 119.52 130.36 119.68 130.3Z" fill="#C68AFF"/>
</g>
<path d="M119.19 130.48L134.43 156.63H126.53L111.73 129.78H99.6198V156.63H92.2998V95.5H116.39C120.38 96.04 125.33 96.34 128.51 97.92C130.21 99.4 133.82 101.48 135.26 103.98C136.76 106.61 136.99 110.68 137.53 112.89C136.98 115.18 135.25 120.63 134.47 122.64C132.5 125.38 127.95 127.25 119.2 130.48H119.19ZM126 123.77C128.69 121.14 130.51 119.44 129.89 113.61C130.48 107.85 128.67 106.25 126 103.64C123.29 101.01 121.33 99.21 115.37 99.88H99.6198V127.51H115.37C121.32 128.19 123.29 126.4 126 123.76" fill="#EEDDFF"/>
<defs>
<radialGradient id="paint0_radial_1037_69" cx="0" cy="0" r="1" gradientUnits="userSpaceOnUse" gradientTransform="translate(104.42 67.3799) scale(145.46 145.46)">
<stop stop-color="#8CE4FF"/>
<stop offset="1" stop-color="#217CFF"/>
</radialGradient>
<radialGradient id="paint1_radial_1037_69" cx="0" cy="0" r="1" gradientUnits="userSpaceOnUse" gradientTransform="translate(170.21 96.7299) scale(134.76 134.76)">
<stop stop-color="#007BFF"/>
<stop offset="1" stop-color="#0050EB"/>
</radialGradient>
<radialGradient id="paint2_radial_1037_69" cx="0" cy="0" r="1" gradientUnits="userSpaceOnUse" gradientTransform="translate(145 83.9399) scale(111.17 111.17)">
<stop stop-color="#3BB2FF"/>
<stop offset="1" stop-color="#0068FF"/>
</radialGradient>
<radialGradient id="paint3_radial_1037_69" cx="0" cy="0" r="1" gradientUnits="userSpaceOnUse" gradientTransform="translate(155.53 103.05) scale(199.92 199.92)">
<stop stop-color="#8CE4FF"/>
<stop offset="1" stop-color="#217CFF"/>
</radialGradient>
<radialGradient id="paint4_radial_1037_69" cx="0" cy="0" r="1" gradientUnits="userSpaceOnUse" gradientTransform="translate(122.29 203.22) scale(136.83 136.83)">
<stop stop-color="#007BFF"/>
<stop offset="1" stop-color="#0050EB"/>
</radialGradient>
<radialGradient id="paint5_radial_1037_69" cx="0" cy="0" r="1" gradientUnits="userSpaceOnUse" gradientTransform="translate(84.9601 76.9199) scale(121.7 121.7)">
<stop stop-color="#3BB2FF"/>
<stop offset="1" stop-color="#0068FF"/>
</radialGradient>
<radialGradient id="paint6_radial_1037_69" cx="0" cy="0" r="1" gradientUnits="userSpaceOnUse" gradientTransform="translate(219.9 143.64) scale(70.46 70.46)">
<stop offset="0.63" stop-color="white"/>
<stop offset="0.68" stop-color="#FAFBFD"/>
<stop offset="0.74" stop-color="#EBF0F8"/>
<stop offset="0.8" stop-color="#D3DFF0"/>
<stop offset="0.86" stop-color="#B2C7E4"/>
<stop offset="0.93" stop-color="#87A8D6"/>
<stop offset="1" stop-color="#5282C4"/>
</radialGradient>
<radialGradient id="paint7_radial_1037_69" cx="0" cy="0" r="1" gradientUnits="userSpaceOnUse" gradientTransform="translate(96.4502 77.88) scale(146.13 146.13)">
<stop stop-color="#5CE4FF"/>
<stop offset="1"/>
</radialGradient>
<radialGradient id="paint8_radial_1037_69" cx="0" cy="0" r="1" gradientUnits="userSpaceOnUse" gradientTransform="translate(152.69 161.52) scale(61.19 61.19)">
<stop stop-color="#5CE4FF"/>
<stop offset="1"/>
</radialGradient>
<radialGradient id="paint9_radial_1037_69" cx="0" cy="0" r="1" gradientUnits="userSpaceOnUse" gradientTransform="translate(89.0399 75.0099) scale(146.24 146.24)">
<stop stop-color="#36A1FF"/>
<stop offset="1" stop-color="#0049FF"/>
</radialGradient>
<radialGradient id="paint10_radial_1037_69" cx="0" cy="0" r="1" gradientUnits="userSpaceOnUse" gradientTransform="translate(93.7199 31.93) scale(89.04 89.04)">
<stop stop-color="#DBF7FF"/>
<stop offset="1" stop-color="#5CC3FF"/>
</radialGradient>
<radialGradient id="paint11_radial_1037_69" cx="0" cy="0" r="1" gradientUnits="userSpaceOnUse" gradientTransform="translate(189.84 52.3899) scale(72.16 72.16)">
<stop stop-color="#8CE4FF"/>
<stop offset="1" stop-color="#217CFF"/>
</radialGradient>
<radialGradient id="paint12_radial_1037_69" cx="0" cy="0" r="1" gradientUnits="userSpaceOnUse" gradientTransform="translate(175.38 163.55) scale(88.35 88.35)">
<stop stop-color="#8CE4FF"/>
<stop offset="1" stop-color="#217CFF"/>
</radialGradient>
<radialGradient id="paint13_radial_1037_69" cx="0" cy="0" r="1" gradientUnits="userSpaceOnUse" gradientTransform="translate(123.07 169.98) scale(85.46 85.46)">
<stop stop-color="#B3EDFF"/>
<stop offset="1" stop-color="#2795FF"/>
</radialGradient>
<radialGradient id="paint14_radial_1037_69" cx="0" cy="0" r="1" gradientUnits="userSpaceOnUse" gradientTransform="translate(52.4602 169.51) scale(98.46 98.46)">
<stop stop-color="#3BB2FF"/>
<stop offset="1" stop-color="#0068FF"/>
</radialGradient>
<radialGradient id="paint15_radial_1037_69" cx="0" cy="0" r="1" gradientUnits="userSpaceOnUse" gradientTransform="translate(71.1802 86.8399) scale(131.19 131.19)">
<stop stop-color="#DBF7FF"/>
<stop offset="1" stop-color="#5CC3FF"/>
</radialGradient>
<radialGradient id="paint16_radial_1037_69" cx="0" cy="0" r="1" gradientUnits="userSpaceOnUse" gradientTransform="translate(-73.8001 158.8) scale(188 188)">
<stop stop-color="#5CE4FF"/>
<stop offset="1"/>
</radialGradient>
<radialGradient id="paint17_radial_1037_69" cx="0" cy="0" r="1" gradientUnits="userSpaceOnUse" gradientTransform="translate(73.1702 -30.9801) scale(176.31 176.31)">
<stop stop-color="#5CE4FF"/>
<stop offset="1"/>
</radialGradient>
<radialGradient id="paint18_radial_1037_69" cx="0" cy="0" r="1" gradientUnits="userSpaceOnUse" gradientTransform="translate(171.26 34.9499) scale(111.52 111.52)">
<stop stop-color="#5CE4FF"/>
<stop offset="1"/>
</radialGradient>
<radialGradient id="paint19_radial_1037_69" cx="0" cy="0" r="1" gradientUnits="userSpaceOnUse" gradientTransform="translate(199.77 59.6899) scale(125.88 125.88)">
<stop stop-color="#5CE4FF"/>
<stop offset="1"/>
</radialGradient>
<radialGradient id="paint20_radial_1037_69" cx="0" cy="0" r="1" gradientUnits="userSpaceOnUse" gradientTransform="translate(178.49 232.25) scale(188.08 188.08)">
<stop stop-color="#5CE4FF"/>
<stop offset="1"/>
</radialGradient>
<radialGradient id="paint21_radial_1037_69" cx="0" cy="0" r="1" gradientUnits="userSpaceOnUse" gradientTransform="translate(76.7802 215.23) scale(122.95 122.95)">
<stop stop-color="#5CE4FF"/>
<stop offset="1"/>
</radialGradient>
<radialGradient id="paint22_radial_1037_69" cx="0" cy="0" r="1" gradientUnits="userSpaceOnUse" gradientTransform="translate(110.24 190.5) scale(69.71 69.71)">
<stop stop-color="#5CE4FF"/>
<stop offset="1"/>
</radialGradient>
<radialGradient id="paint23_radial_1037_69" cx="0" cy="0" r="1" gradientUnits="userSpaceOnUse" gradientTransform="translate(102.48 54.5999) scale(62.88 62.88)">
<stop stop-color="#5CE4FF"/>
<stop offset="1"/>
</radialGradient>
<radialGradient id="paint24_radial_1037_69" cx="0" cy="0" r="1" gradientUnits="userSpaceOnUse" gradientTransform="translate(58.0601 81.9499) scale(59.76 59.76)">
<stop stop-color="#5CE4FF"/>
<stop offset="1"/>
</radialGradient>
<radialGradient id="paint25_radial_1037_69" cx="0" cy="0" r="1" gradientUnits="userSpaceOnUse" gradientTransform="translate(176.02 164.29) scale(76.58 76.58)">
<stop stop-color="#5CE4FF"/>
<stop offset="1"/>
</radialGradient>
<radialGradient id="paint26_radial_1037_69" cx="0" cy="0" r="1" gradientUnits="userSpaceOnUse" gradientTransform="translate(82.6301 241.12) scale(91.5 91.5)">
<stop offset="0.63" stop-color="white"/>
<stop offset="0.68" stop-color="#FAFBFD"/>
<stop offset="0.74" stop-color="#EBF0F8"/>
<stop offset="0.8" stop-color="#D3DFF0"/>
<stop offset="0.86" stop-color="#B2C7E4"/>
<stop offset="0.93" stop-color="#87A8D6"/>
<stop offset="1" stop-color="#5282C4"/>
</radialGradient>
<radialGradient id="paint27_radial_1037_69" cx="0" cy="0" r="1" gradientUnits="userSpaceOnUse" gradientTransform="translate(73.49 14.89) scale(104.85)">
<stop stop-color="#FFE4A1"/>
<stop offset="1" stop-color="#8D4F3B"/>
</radialGradient>
<radialGradient id="paint28_radial_1037_69" cx="0" cy="0" r="1" gradientUnits="userSpaceOnUse" gradientTransform="translate(284.37 -40.91) scale(236.7 236.7)">
<stop stop-color="#AE6C5A"/>
<stop offset="1" stop-color="#622A19"/>
</radialGradient>
<radialGradient id="paint29_radial_1037_69" cx="0" cy="0" r="1" gradientUnits="userSpaceOnUse" gradientTransform="translate(91.8399 68.45) scale(101.24 101.24)">
<stop stop-color="#87422E"/>
<stop offset="1" stop-color="#41160C"/>
</radialGradient>
<radialGradient id="paint30_radial_1037_69" cx="0" cy="0" r="1" gradientUnits="userSpaceOnUse" gradientTransform="translate(213.69 45.8) scale(126.92)">
<stop stop-color="#87422E"/>
<stop offset="1" stop-color="#41160C"/>
</radialGradient>
<radialGradient id="paint31_radial_1037_69" cx="0" cy="0" r="1" gradientUnits="userSpaceOnUse" gradientTransform="translate(-20.38 149.5) scale(105.89 105.89)">
<stop stop-color="#AE6C5A"/>
<stop offset="1" stop-color="#622A19"/>
</radialGradient>
<radialGradient id="paint32_radial_1037_69" cx="0" cy="0" r="1" gradientUnits="userSpaceOnUse" gradientTransform="translate(120.42 137.01) scale(152.16 152.16)">
<stop stop-color="#87422E"/>
<stop offset="1" stop-color="#41160C"/>
</radialGradient>
<radialGradient id="paint33_radial_1037_69" cx="0" cy="0" r="1" gradientUnits="userSpaceOnUse" gradientTransform="translate(202.57 171.12) scale(166.21 166.21)">
<stop stop-color="#AE6C5A"/>
<stop offset="1" stop-color="#622A19"/>
</radialGradient>
<radialGradient id="paint34_radial_1037_69" cx="0" cy="0" r="1" gradientUnits="userSpaceOnUse" gradientTransform="translate(352.03 131.75) scale(151.47 151.47)">
<stop stop-color="#A1553E"/>
<stop offset="1" stop-color="#4B1E13"/>
</radialGradient>
<radialGradient id="paint35_radial_1037_69" cx="0" cy="0" r="1" gradientUnits="userSpaceOnUse" gradientTransform="translate(112.05 200.68) scale(134.19 134.19)">
<stop stop-color="#AE6C5A"/>
<stop offset="1" stop-color="#622A19"/>
</radialGradient>
<radialGradient id="paint36_radial_1037_69" cx="0" cy="0" r="1" gradientUnits="userSpaceOnUse" gradientTransform="translate(115.09 148.8) scale(127.83 127.83)">
<stop stop-color="#87422E"/>
<stop offset="1" stop-color="#41160C"/>
</radialGradient>
<radialGradient id="paint37_radial_1037_69" cx="0" cy="0" r="1" gradientUnits="userSpaceOnUse" gradientTransform="translate(175.61 222.84) scale(88.36 88.36)">
<stop stop-color="#EEC2A3"/>
<stop offset="1" stop-color="#8D4F3B"/>
</radialGradient>
<radialGradient id="paint38_radial_1037_69" cx="0" cy="0" r="1" gradientUnits="userSpaceOnUse" gradientTransform="translate(199.19 273.66) scale(90.24 90.24)">
<stop stop-color="#763827"/>
<stop offset="1" stop-color="#3F180F"/>
</radialGradient>
<radialGradient id="paint39_radial_1037_69" cx="0" cy="0" r="1" gradientUnits="userSpaceOnUse" gradientTransform="translate(112.32 10.8099) scale(55.18 55.18)">
<stop stop-color="#BE7257"/>
<stop offset="1" stop-color="#080000"/>
</radialGradient>
<radialGradient id="paint40_radial_1037_69" cx="0" cy="0" r="1" gradientUnits="userSpaceOnUse" gradientTransform="translate(215.45 188.76) scale(87.74 87.74)">
<stop stop-color="#BE7257"/>
<stop offset="1" stop-color="#080000"/>
</radialGradient>
<radialGradient id="paint41_radial_1037_69" cx="0" cy="0" r="1" gradientUnits="userSpaceOnUse" gradientTransform="translate(13.2401 71.64) scale(67.88 67.88)">
<stop stop-color="#BE7257"/>
<stop offset="1" stop-color="#080000"/>
</radialGradient>
<radialGradient id="paint42_radial_1037_69" cx="0" cy="0" r="1" gradientUnits="userSpaceOnUse" gradientTransform="translate(14.8201 186.08) scale(62.17 62.17)">
<stop stop-color="#BE7257"/>
<stop offset="1" stop-color="#080000"/>
</radialGradient>
<radialGradient id="paint43_radial_1037_69" cx="0" cy="0" r="1" gradientUnits="userSpaceOnUse" gradientTransform="translate(11.0702 197.94) scale(49.44 49.44)">
<stop stop-color="#BE7257"/>
<stop offset="1" stop-color="#080000"/>
</radialGradient>
<radialGradient id="paint44_radial_1037_69" cx="0" cy="0" r="1" gradientUnits="userSpaceOnUse" gradientTransform="translate(34.0798 182.39) scale(50.66 50.66)">
<stop stop-color="#BE7257"/>
<stop offset="1" stop-color="#080000"/>
</radialGradient>
<radialGradient id="paint45_radial_1037_69" cx="0" cy="0" r="1" gradientUnits="userSpaceOnUse" gradientTransform="translate(27.56 150.01) scale(83.02 83.02)">
<stop stop-color="#BE7257"/>
<stop offset="1" stop-color="#080000"/>
</radialGradient>
<radialGradient id="paint46_radial_1037_69" cx="0" cy="0" r="1" gradientUnits="userSpaceOnUse" gradientTransform="translate(65.9098 71.98) scale(59.69 59.69)">
<stop stop-color="#BE7257"/>
<stop offset="1" stop-color="#080000"/>
</radialGradient>
<radialGradient id="paint47_radial_1037_69" cx="0" cy="0" r="1" gradientUnits="userSpaceOnUse" gradientTransform="translate(70.3102 -28.7601) scale(75.18 75.18)">
<stop stop-color="#BE7257"/>
<stop offset="1" stop-color="#080000"/>
</radialGradient>
<radialGradient id="paint48_radial_1037_69" cx="0" cy="0" r="1" gradientUnits="userSpaceOnUse" gradientTransform="translate(59.88 53.35) scale(74.16 74.16)">
<stop stop-color="#BE7257"/>
<stop offset="1" stop-color="#080000"/>
</radialGradient>
<radialGradient id="paint49_radial_1037_69" cx="0" cy="0" r="1" gradientUnits="userSpaceOnUse" gradientTransform="translate(23.9198 238.57) scale(52.38 52.3801)">
<stop stop-color="#BE7257"/>
<stop offset="1" stop-color="#080000"/>
</radialGradient>
<radialGradient id="paint50_radial_1037_69" cx="0" cy="0" r="1" gradientUnits="userSpaceOnUse" gradientTransform="translate(78.0799 353.19) scale(143.11 143.11)">
<stop stop-color="#BE7257"/>
<stop offset="1" stop-color="#080000"/>
</radialGradient>
<radialGradient id="paint51_radial_1037_69" cx="0" cy="0" r="1" gradientUnits="userSpaceOnUse" gradientTransform="translate(112.35 294.37) scale(59.11 59.11)">
<stop stop-color="#BE7257"/>
<stop offset="1" stop-color="#080000"/>
</radialGradient>
<radialGradient id="paint52_radial_1037_69" cx="0" cy="0" r="1" gradientUnits="userSpaceOnUse" gradientTransform="translate(187.87 279.6) scale(84.82 84.82)">
<stop stop-color="#995137"/>
<stop offset="1" stop-color="#080000"/>
</radialGradient>
<radialGradient id="paint53_radial_1037_69" cx="0" cy="0" r="1" gradientUnits="userSpaceOnUse" gradientTransform="translate(193.6 301.59) scale(101.9 101.9)">
<stop stop-color="#995137"/>
<stop offset="1" stop-color="#080000"/>
</radialGradient>
<radialGradient id="paint54_radial_1037_69" cx="0" cy="0" r="1" gradientUnits="userSpaceOnUse" gradientTransform="translate(257.84 197.15) scale(63.59 63.59)">
<stop stop-color="#995137"/>
<stop offset="1" stop-color="#080000"/>
</radialGradient>
<radialGradient id="paint55_radial_1037_69" cx="0" cy="0" r="1" gradientUnits="userSpaceOnUse" gradientTransform="translate(116.64 -23.18) scale(47.28)">
<stop stop-color="#BE7257"/>
<stop offset="1" stop-color="#080000"/>
</radialGradient>
<radialGradient id="paint56_radial_1037_69" cx="0" cy="0" r="1" gradientUnits="userSpaceOnUse" gradientTransform="translate(178.21 78.3599) scale(76.58 76.58)">
<stop stop-color="#BE7257"/>
<stop offset="1" stop-color="#080000"/>
</radialGradient>
<radialGradient id="paint57_radial_1037_69" cx="0" cy="0" r="1" gradientUnits="userSpaceOnUse" gradientTransform="translate(175.98 -12.24) scale(80.52 80.52)">
<stop stop-color="#BE7257"/>
<stop offset="1" stop-color="#080000"/>
</radialGradient>
<radialGradient id="paint58_radial_1037_69" cx="0" cy="0" r="1" gradientUnits="userSpaceOnUse" gradientTransform="translate(265.49 128.81) scale(73.47 73.47)">
<stop stop-color="#BE7257"/>
<stop offset="1" stop-color="#080000"/>
</radialGradient>
<radialGradient id="paint59_radial_1037_69" cx="0" cy="0" r="1" gradientUnits="userSpaceOnUse" gradientTransform="translate(245.78 159.03) scale(58.0499 58.05)">
<stop stop-color="#BE7257"/>
<stop offset="1" stop-color="#080000"/>
</radialGradient>
<radialGradient id="paint60_radial_1037_69" cx="0" cy="0" r="1" gradientUnits="userSpaceOnUse" gradientTransform="translate(255.93 141.82) scale(56.05 56.05)">
<stop stop-color="#BE7257"/>
<stop offset="1" stop-color="#080000"/>
</radialGradient>
<radialGradient id="paint61_radial_1037_69" cx="0" cy="0" r="1" gradientUnits="userSpaceOnUse" gradientTransform="translate(43.4501 35.97) scale(249.57 249.57)">
<stop stop-color="#FFF70E"/>
<stop offset="0.41" stop-color="#DF14FF"/>
<stop offset="1" stop-color="#00CCB1"/>
</radialGradient>
</defs>
</svg>
